<?xml version="1.0" encoding="utf-8" standalone="no"?>
<!DOCTYPE svg PUBLIC "-//W3C//DTD SVG 1.1//EN"
  "http://www.w3.org/Graphics/SVG/1.1/DTD/svg11.dtd">
<svg xmlns:xlink="http://www.w3.org/1999/xlink" width="229.970757pt" height="158.398043pt" viewBox="0 0 229.970757 158.398043" xmlns="http://www.w3.org/2000/svg" version="1.1">
 <metadata>
  <rdf:RDF xmlns:dc="http://purl.org/dc/elements/1.1/" xmlns:cc="http://creativecommons.org/ns#" xmlns:rdf="http://www.w3.org/1999/02/22-rdf-syntax-ns#">
   <cc:Work>
    <dc:type rdf:resource="http://purl.org/dc/dcmitype/StillImage"/>
    <dc:date>2026-06-30T16:55:34.489180</dc:date>
    <dc:format>image/svg+xml</dc:format>
    <dc:creator>
     <cc:Agent>
      <dc:title>Matplotlib v3.9.2, https://matplotlib.org/</dc:title>
     </cc:Agent>
    </dc:creator>
   </cc:Work>
  </rdf:RDF>
 </metadata>
 <defs>
  <style type="text/css">*{stroke-linejoin: round; stroke-linecap: butt}</style>
 </defs>
 <g id="figure_1">
  <g id="patch_1">
   <path d="M 0 158.398043 
L 229.970757 158.398043 
L 229.970757 0 
L 0 0 
z
" style="fill: #ffffff"/>
  </g>
  <g id="axes_1">
   <g id="patch_2">
    <path d="M 35.230312 129.505231 
L 228.530757 129.505231 
L 228.530757 14.28 
L 35.230312 14.28 
z
" style="fill: #ffffff"/>
   </g>
   <g id="matplotlib.axis_1">
    <g id="xtick_1">
     <g id="line2d_1">
      <path d="M 69.12065 129.505231 
L 69.12065 14.28 
" clip-path="url(#p4f35877a90)" style="fill: none; stroke-dasharray: 1.85,0.8; stroke-dashoffset: 0; stroke: #b0b0b0; stroke-opacity: 0.3; stroke-width: 0.5"/>
     </g>
     <g id="line2d_2">
      <defs>
       <path id="me707ac1c17" d="M 0 0 
L 0 3.5 
" style="stroke: #000000; stroke-width: 0.8"/>
      </defs>
      <g>
       <use xlink:href="#me707ac1c17" x="69.12065" y="129.505231" style="stroke: #000000; stroke-width: 0.8"/>
      </g>
     </g>
     <g id="text_1">
      <!-- $\mathdefault{10^{0}}$ -->
      <g transform="translate(62.08065 142.583981) scale(0.08 -0.08)">
       <defs>
        <path id="DejaVuSans-31" d="M 794 531 
L 1825 531 
L 1825 4091 
L 703 3866 
L 703 4441 
L 1819 4666 
L 2450 4666 
L 2450 531 
L 3481 531 
L 3481 0 
L 794 0 
L 794 531 
z
" transform="scale(0.015625)"/>
        <path id="DejaVuSans-30" d="M 2034 4250 
Q 1547 4250 1301 3770 
Q 1056 3291 1056 2328 
Q 1056 1369 1301 889 
Q 1547 409 2034 409 
Q 2525 409 2770 889 
Q 3016 1369 3016 2328 
Q 3016 3291 2770 3770 
Q 2525 4250 2034 4250 
z
M 2034 4750 
Q 2819 4750 3233 4129 
Q 3647 3509 3647 2328 
Q 3647 1150 3233 529 
Q 2819 -91 2034 -91 
Q 1250 -91 836 529 
Q 422 1150 422 2328 
Q 422 3509 836 4129 
Q 1250 4750 2034 4750 
z
" transform="scale(0.015625)"/>
       </defs>
       <use xlink:href="#DejaVuSans-31" transform="translate(0 0.765625)"/>
       <use xlink:href="#DejaVuSans-30" transform="translate(63.623047 0.765625)"/>
       <use xlink:href="#DejaVuSans-30" transform="translate(128.203125 39.046875) scale(0.7)"/>
      </g>
     </g>
    </g>
    <g id="xtick_2">
     <g id="line2d_3">
      <path d="M 152.51418 129.505231 
L 152.51418 14.28 
" clip-path="url(#p4f35877a90)" style="fill: none; stroke-dasharray: 1.85,0.8; stroke-dashoffset: 0; stroke: #b0b0b0; stroke-opacity: 0.3; stroke-width: 0.5"/>
     </g>
     <g id="line2d_4">
      <g>
       <use xlink:href="#me707ac1c17" x="152.51418" y="129.505231" style="stroke: #000000; stroke-width: 0.8"/>
      </g>
     </g>
     <g id="text_2">
      <!-- $\mathdefault{10^{1}}$ -->
      <g transform="translate(145.47418 142.583981) scale(0.08 -0.08)">
       <use xlink:href="#DejaVuSans-31" transform="translate(0 0.684375)"/>
       <use xlink:href="#DejaVuSans-30" transform="translate(63.623047 0.684375)"/>
       <use xlink:href="#DejaVuSans-31" transform="translate(128.203125 38.965625) scale(0.7)"/>
      </g>
     </g>
    </g>
    <g id="xtick_3">
     <g id="line2d_5">
      <defs>
       <path id="md4a4c04c50" d="M 0 0 
L 0 2 
" style="stroke: #000000; stroke-width: 0.6"/>
      </defs>
      <g>
       <use xlink:href="#md4a4c04c50" x="35.935028" y="129.505231" style="stroke: #000000; stroke-width: 0.6"/>
      </g>
     </g>
    </g>
    <g id="xtick_4">
     <g id="line2d_6">
      <g>
       <use xlink:href="#md4a4c04c50" x="44.016696" y="129.505231" style="stroke: #000000; stroke-width: 0.6"/>
      </g>
     </g>
    </g>
    <g id="xtick_5">
     <g id="line2d_7">
      <g>
       <use xlink:href="#md4a4c04c50" x="50.6199" y="129.505231" style="stroke: #000000; stroke-width: 0.6"/>
      </g>
     </g>
    </g>
    <g id="xtick_6">
     <g id="line2d_8">
      <g>
       <use xlink:href="#md4a4c04c50" x="56.202829" y="129.505231" style="stroke: #000000; stroke-width: 0.6"/>
      </g>
     </g>
    </g>
    <g id="xtick_7">
     <g id="line2d_9">
      <g>
       <use xlink:href="#md4a4c04c50" x="61.038982" y="129.505231" style="stroke: #000000; stroke-width: 0.6"/>
      </g>
     </g>
    </g>
    <g id="xtick_8">
     <g id="line2d_10">
      <g>
       <use xlink:href="#md4a4c04c50" x="65.304771" y="129.505231" style="stroke: #000000; stroke-width: 0.6"/>
      </g>
     </g>
    </g>
    <g id="xtick_9">
     <g id="line2d_11">
      <g>
       <use xlink:href="#md4a4c04c50" x="94.224604" y="129.505231" style="stroke: #000000; stroke-width: 0.6"/>
      </g>
     </g>
    </g>
    <g id="xtick_10">
     <g id="line2d_12">
      <g>
       <use xlink:href="#md4a4c04c50" x="108.909475" y="129.505231" style="stroke: #000000; stroke-width: 0.6"/>
      </g>
     </g>
    </g>
    <g id="xtick_11">
     <g id="line2d_13">
      <g>
       <use xlink:href="#md4a4c04c50" x="119.328558" y="129.505231" style="stroke: #000000; stroke-width: 0.6"/>
      </g>
     </g>
    </g>
    <g id="xtick_12">
     <g id="line2d_14">
      <g>
       <use xlink:href="#md4a4c04c50" x="127.410226" y="129.505231" style="stroke: #000000; stroke-width: 0.6"/>
      </g>
     </g>
    </g>
    <g id="xtick_13">
     <g id="line2d_15">
      <g>
       <use xlink:href="#md4a4c04c50" x="134.013429" y="129.505231" style="stroke: #000000; stroke-width: 0.6"/>
      </g>
     </g>
    </g>
    <g id="xtick_14">
     <g id="line2d_16">
      <g>
       <use xlink:href="#md4a4c04c50" x="139.596358" y="129.505231" style="stroke: #000000; stroke-width: 0.6"/>
      </g>
     </g>
    </g>
    <g id="xtick_15">
     <g id="line2d_17">
      <g>
       <use xlink:href="#md4a4c04c50" x="144.432511" y="129.505231" style="stroke: #000000; stroke-width: 0.6"/>
      </g>
     </g>
    </g>
    <g id="xtick_16">
     <g id="line2d_18">
      <g>
       <use xlink:href="#md4a4c04c50" x="148.698301" y="129.505231" style="stroke: #000000; stroke-width: 0.6"/>
      </g>
     </g>
    </g>
    <g id="xtick_17">
     <g id="line2d_19">
      <g>
       <use xlink:href="#md4a4c04c50" x="177.618133" y="129.505231" style="stroke: #000000; stroke-width: 0.6"/>
      </g>
     </g>
    </g>
    <g id="xtick_18">
     <g id="line2d_20">
      <g>
       <use xlink:href="#md4a4c04c50" x="192.303005" y="129.505231" style="stroke: #000000; stroke-width: 0.6"/>
      </g>
     </g>
    </g>
    <g id="xtick_19">
     <g id="line2d_21">
      <g>
       <use xlink:href="#md4a4c04c50" x="202.722087" y="129.505231" style="stroke: #000000; stroke-width: 0.6"/>
      </g>
     </g>
    </g>
    <g id="xtick_20">
     <g id="line2d_22">
      <g>
       <use xlink:href="#md4a4c04c50" x="210.803755" y="129.505231" style="stroke: #000000; stroke-width: 0.6"/>
      </g>
     </g>
    </g>
    <g id="xtick_21">
     <g id="line2d_23">
      <g>
       <use xlink:href="#md4a4c04c50" x="217.406959" y="129.505231" style="stroke: #000000; stroke-width: 0.6"/>
      </g>
     </g>
    </g>
    <g id="xtick_22">
     <g id="line2d_24">
      <g>
       <use xlink:href="#md4a4c04c50" x="222.989888" y="129.505231" style="stroke: #000000; stroke-width: 0.6"/>
      </g>
     </g>
    </g>
    <g id="xtick_23">
     <g id="line2d_25">
      <g>
       <use xlink:href="#md4a4c04c50" x="227.826041" y="129.505231" style="stroke: #000000; stroke-width: 0.6"/>
      </g>
     </g>
    </g>
    <g id="text_3">
     <!-- $\varepsilon_1$ -->
     <g transform="translate(127.290535 155.086325) scale(0.09 -0.09)">
      <defs>
       <path id="DejaVuSans-Oblique-3b5" d="M 1263 1888 
Q 925 1963 778 2166 
Q 669 2309 669 2503 
Q 669 3034 1175 3344 
Q 1575 3588 2188 3588 
Q 2425 3588 2684 3550 
Q 2944 3513 3234 3438 
L 3134 2916 
Q 2847 3006 2606 3047 
Q 2359 3088 2138 3088 
Q 1766 3088 1522 2944 
Q 1228 2772 1228 2522 
Q 1228 2356 1381 2241 
Q 1563 2103 1925 2103 
L 2409 2103 
L 2319 1628 
L 1856 1628 
Q 1425 1628 1172 1469 
Q 828 1253 828 916 
Q 828 703 1013 563 
Q 1244 388 1716 388 
Q 2006 388 2284 444 
Q 2563 503 2806 619 
L 2700 84 
Q 2403 -3 2131 -47 
Q 1859 -91 1609 -91 
Q 866 -91 516 194 
Q 250 413 250 781 
Q 250 1278 600 1584 
Q 859 1813 1263 1888 
z
" transform="scale(0.015625)"/>
      </defs>
      <use xlink:href="#DejaVuSans-Oblique-3b5" transform="translate(0 0.9375)"/>
      <use xlink:href="#DejaVuSans-31" transform="translate(54.052734 -15.46875) scale(0.7)"/>
     </g>
    </g>
   </g>
   <g id="matplotlib.axis_2">
    <g id="ytick_1">
     <g id="line2d_26">
      <path d="M 35.230312 109.303405 
L 228.530757 109.303405 
" clip-path="url(#p4f35877a90)" style="fill: none; stroke-dasharray: 1.85,0.8; stroke-dashoffset: 0; stroke: #b0b0b0; stroke-opacity: 0.3; stroke-width: 0.5"/>
     </g>
     <g id="line2d_27">
      <defs>
       <path id="mb82edcc431" d="M 0 0 
L -3.5 0 
" style="stroke: #000000; stroke-width: 0.8"/>
      </defs>
      <g>
       <use xlink:href="#mb82edcc431" x="35.230312" y="109.303405" style="stroke: #000000; stroke-width: 0.8"/>
      </g>
     </g>
     <g id="text_4">
      <!-- $\mathdefault{10^{0}}$ -->
      <g transform="translate(14.150312 112.34278) scale(0.08 -0.08)">
       <use xlink:href="#DejaVuSans-31" transform="translate(0 0.765625)"/>
       <use xlink:href="#DejaVuSans-30" transform="translate(63.623047 0.765625)"/>
       <use xlink:href="#DejaVuSans-30" transform="translate(128.203125 39.046875) scale(0.7)"/>
      </g>
     </g>
    </g>
    <g id="ytick_2">
     <g id="line2d_28">
      <path d="M 35.230312 59.593024 
L 228.530757 59.593024 
" clip-path="url(#p4f35877a90)" style="fill: none; stroke-dasharray: 1.85,0.8; stroke-dashoffset: 0; stroke: #b0b0b0; stroke-opacity: 0.3; stroke-width: 0.5"/>
     </g>
     <g id="line2d_29">
      <g>
       <use xlink:href="#mb82edcc431" x="35.230312" y="59.593024" style="stroke: #000000; stroke-width: 0.8"/>
      </g>
     </g>
     <g id="text_5">
      <!-- $\mathdefault{10^{1}}$ -->
      <g transform="translate(14.150312 62.632399) scale(0.08 -0.08)">
       <use xlink:href="#DejaVuSans-31" transform="translate(0 0.684375)"/>
       <use xlink:href="#DejaVuSans-30" transform="translate(63.623047 0.684375)"/>
       <use xlink:href="#DejaVuSans-31" transform="translate(128.203125 38.965625) scale(0.7)"/>
      </g>
     </g>
    </g>
    <g id="ytick_3">
     <g id="line2d_30">
      <defs>
       <path id="mef286d8ddf" d="M 0 0 
L -2 0 
" style="stroke: #000000; stroke-width: 0.6"/>
      </defs>
      <g>
       <use xlink:href="#mef286d8ddf" x="35.230312" y="129.085154" style="stroke: #000000; stroke-width: 0.6"/>
      </g>
     </g>
    </g>
    <g id="ytick_4">
     <g id="line2d_31">
      <g>
       <use xlink:href="#mef286d8ddf" x="35.230312" y="124.26772" style="stroke: #000000; stroke-width: 0.6"/>
      </g>
     </g>
    </g>
    <g id="ytick_5">
     <g id="line2d_32">
      <g>
       <use xlink:href="#mef286d8ddf" x="35.230312" y="120.33159" style="stroke: #000000; stroke-width: 0.6"/>
      </g>
     </g>
    </g>
    <g id="ytick_6">
     <g id="line2d_33">
      <g>
       <use xlink:href="#mef286d8ddf" x="35.230312" y="117.00364" style="stroke: #000000; stroke-width: 0.6"/>
      </g>
     </g>
    </g>
    <g id="ytick_7">
     <g id="line2d_34">
      <g>
       <use xlink:href="#mef286d8ddf" x="35.230312" y="114.120838" style="stroke: #000000; stroke-width: 0.6"/>
      </g>
     </g>
    </g>
    <g id="ytick_8">
     <g id="line2d_35">
      <g>
       <use xlink:href="#mef286d8ddf" x="35.230312" y="111.578027" style="stroke: #000000; stroke-width: 0.6"/>
      </g>
     </g>
    </g>
    <g id="ytick_9">
     <g id="line2d_36">
      <g>
       <use xlink:href="#mef286d8ddf" x="35.230312" y="94.339089" style="stroke: #000000; stroke-width: 0.6"/>
      </g>
     </g>
    </g>
    <g id="ytick_10">
     <g id="line2d_37">
      <g>
       <use xlink:href="#mef286d8ddf" x="35.230312" y="85.585525" style="stroke: #000000; stroke-width: 0.6"/>
      </g>
     </g>
    </g>
    <g id="ytick_11">
     <g id="line2d_38">
      <g>
       <use xlink:href="#mef286d8ddf" x="35.230312" y="79.374773" style="stroke: #000000; stroke-width: 0.6"/>
      </g>
     </g>
    </g>
    <g id="ytick_12">
     <g id="line2d_39">
      <g>
       <use xlink:href="#mef286d8ddf" x="35.230312" y="74.55734" style="stroke: #000000; stroke-width: 0.6"/>
      </g>
     </g>
    </g>
    <g id="ytick_13">
     <g id="line2d_40">
      <g>
       <use xlink:href="#mef286d8ddf" x="35.230312" y="70.62121" style="stroke: #000000; stroke-width: 0.6"/>
      </g>
     </g>
    </g>
    <g id="ytick_14">
     <g id="line2d_41">
      <g>
       <use xlink:href="#mef286d8ddf" x="35.230312" y="67.293259" style="stroke: #000000; stroke-width: 0.6"/>
      </g>
     </g>
    </g>
    <g id="ytick_15">
     <g id="line2d_42">
      <g>
       <use xlink:href="#mef286d8ddf" x="35.230312" y="64.410458" style="stroke: #000000; stroke-width: 0.6"/>
      </g>
     </g>
    </g>
    <g id="ytick_16">
     <g id="line2d_43">
      <g>
       <use xlink:href="#mef286d8ddf" x="35.230312" y="61.867646" style="stroke: #000000; stroke-width: 0.6"/>
      </g>
     </g>
    </g>
    <g id="ytick_17">
     <g id="line2d_44">
      <g>
       <use xlink:href="#mef286d8ddf" x="35.230312" y="44.628708" style="stroke: #000000; stroke-width: 0.6"/>
      </g>
     </g>
    </g>
    <g id="ytick_18">
     <g id="line2d_45">
      <g>
       <use xlink:href="#mef286d8ddf" x="35.230312" y="35.875145" style="stroke: #000000; stroke-width: 0.6"/>
      </g>
     </g>
    </g>
    <g id="ytick_19">
     <g id="line2d_46">
      <g>
       <use xlink:href="#mef286d8ddf" x="35.230312" y="29.664393" style="stroke: #000000; stroke-width: 0.6"/>
      </g>
     </g>
    </g>
    <g id="ytick_20">
     <g id="line2d_47">
      <g>
       <use xlink:href="#mef286d8ddf" x="35.230312" y="24.846959" style="stroke: #000000; stroke-width: 0.6"/>
      </g>
     </g>
    </g>
    <g id="ytick_21">
     <g id="line2d_48">
      <g>
       <use xlink:href="#mef286d8ddf" x="35.230312" y="20.910829" style="stroke: #000000; stroke-width: 0.6"/>
      </g>
     </g>
    </g>
    <g id="ytick_22">
     <g id="line2d_49">
      <g>
       <use xlink:href="#mef286d8ddf" x="35.230312" y="17.582879" style="stroke: #000000; stroke-width: 0.6"/>
      </g>
     </g>
    </g>
    <g id="ytick_23">
     <g id="line2d_50">
      <g>
       <use xlink:href="#mef286d8ddf" x="35.230312" y="14.700077" style="stroke: #000000; stroke-width: 0.6"/>
      </g>
     </g>
    </g>
    <g id="text_6">
     <!-- $\varepsilon_2$ -->
     <g transform="translate(8.278594 76.482615) rotate(-90) scale(0.09 -0.09)">
      <defs>
       <path id="DejaVuSans-32" d="M 1228 531 
L 3431 531 
L 3431 0 
L 469 0 
L 469 531 
Q 828 903 1448 1529 
Q 2069 2156 2228 2338 
Q 2531 2678 2651 2914 
Q 2772 3150 2772 3378 
Q 2772 3750 2511 3984 
Q 2250 4219 1831 4219 
Q 1534 4219 1204 4116 
Q 875 4013 500 3803 
L 500 4441 
Q 881 4594 1212 4672 
Q 1544 4750 1819 4750 
Q 2544 4750 2975 4387 
Q 3406 4025 3406 3419 
Q 3406 3131 3298 2873 
Q 3191 2616 2906 2266 
Q 2828 2175 2409 1742 
Q 1991 1309 1228 531 
z
" transform="scale(0.015625)"/>
      </defs>
      <use xlink:href="#DejaVuSans-Oblique-3b5" transform="translate(0 0.9375)"/>
      <use xlink:href="#DejaVuSans-32" transform="translate(54.052734 -15.46875) scale(0.7)"/>
     </g>
    </g>
   </g>
   <g id="line2d_51">
    <defs>
     <path id="m1362b12c08" d="M 0 2.5 
C 0.663008 2.5 1.29895 2.236584 1.767767 1.767767 
C 2.236584 1.29895 2.5 0.663008 2.5 0 
C 2.5 -0.663008 2.236584 -1.29895 1.767767 -1.767767 
C 1.29895 -2.236584 0.663008 -2.5 0 -2.5 
C -0.663008 -2.5 -1.29895 -2.236584 -1.767767 -1.767767 
C -2.236584 -1.29895 -2.5 -0.663008 -2.5 0 
C -2.5 0.663008 -2.236584 1.29895 -1.767767 1.767767 
C -1.29895 2.236584 -0.663008 2.5 0 2.5 
z
" style="stroke: #ffffff; stroke-width: 0.4"/>
    </defs>
    <g clip-path="url(#p4f35877a90)">
     <use xlink:href="#m1362b12c08" x="44.016696" y="124.26772" style="fill: #a6cee4; stroke: #ffffff; stroke-width: 0.4"/>
    </g>
   </g>
   <g id="line2d_52">
    <defs>
     <path id="m8af0c0da3a" d="M 0 2.5 
C 0.663008 2.5 1.29895 2.236584 1.767767 1.767767 
C 2.236584 1.29895 2.5 0.663008 2.5 0 
C 2.5 -0.663008 2.236584 -1.29895 1.767767 -1.767767 
C 1.29895 -2.236584 0.663008 -2.5 0 -2.5 
C -0.663008 -2.5 -1.29895 -2.236584 -1.767767 -1.767767 
C -2.236584 -1.29895 -2.5 -0.663008 -2.5 0 
C -2.5 0.663008 -2.236584 1.29895 -1.767767 1.767767 
C -1.29895 2.236584 -0.663008 2.5 0 2.5 
z
" style="stroke: #ffffff; stroke-width: 0.4"/>
    </defs>
    <g clip-path="url(#p4f35877a90)">
     <use xlink:href="#m8af0c0da3a" x="52.384681" y="94.339089" style="fill: #77b5d9; stroke: #ffffff; stroke-width: 0.4"/>
    </g>
   </g>
   <g id="line2d_53">
    <g clip-path="url(#p4f35877a90)">
     <use xlink:href="#m8af0c0da3a" x="69.12065" y="109.303405" style="fill: #77b5d9; stroke: #ffffff; stroke-width: 0.4"/>
    </g>
   </g>
   <g id="line2d_54">
    <g clip-path="url(#p4f35877a90)">
     <use xlink:href="#m8af0c0da3a" x="94.224604" y="119.279615" style="fill: #77b5d9; stroke: #ffffff; stroke-width: 0.4"/>
    </g>
   </g>
   <g id="line2d_55">
    <defs>
     <path id="m22dbd8f4ad" d="M 0 2.5 
C 0.663008 2.5 1.29895 2.236584 1.767767 1.767767 
C 2.236584 1.29895 2.5 0.663008 2.5 0 
C 2.5 -0.663008 2.236584 -1.29895 1.767767 -1.767767 
C 1.29895 -2.236584 0.663008 -2.5 0 -2.5 
C -0.663008 -2.5 -1.29895 -2.236584 -1.767767 -1.767767 
C -2.236584 -1.29895 -2.5 -0.663008 -2.5 0 
C -2.5 0.663008 -2.236584 1.29895 -1.767767 1.767767 
C -1.29895 2.236584 -0.663008 2.5 0 2.5 
z
" style="stroke: #ffffff; stroke-width: 0.4"/>
    </defs>
    <g clip-path="url(#p4f35877a90)">
     <use xlink:href="#m22dbd8f4ad" x="60.752666" y="74.386668" style="fill: #4d99ca; stroke: #ffffff; stroke-width: 0.4"/>
    </g>
   </g>
   <g id="line2d_56">
    <g clip-path="url(#p4f35877a90)">
     <use xlink:href="#m22dbd8f4ad" x="77.488635" y="69.398563" style="fill: #4d99ca; stroke: #ffffff; stroke-width: 0.4"/>
    </g>
   </g>
   <g id="line2d_57">
    <g clip-path="url(#p4f35877a90)">
     <use xlink:href="#m22dbd8f4ad" x="85.856619" y="64.410458" style="fill: #4d99ca; stroke: #ffffff; stroke-width: 0.4"/>
    </g>
   </g>
   <g id="line2d_58">
    <g clip-path="url(#p4f35877a90)">
     <use xlink:href="#m22dbd8f4ad" x="102.592589" y="84.362878" style="fill: #4d99ca; stroke: #ffffff; stroke-width: 0.4"/>
    </g>
   </g>
   <g id="line2d_59">
    <g clip-path="url(#p4f35877a90)">
     <use xlink:href="#m22dbd8f4ad" x="110.960573" y="89.350984" style="fill: #4d99ca; stroke: #ffffff; stroke-width: 0.4"/>
    </g>
   </g>
   <g id="line2d_60">
    <g clip-path="url(#p4f35877a90)">
     <use xlink:href="#m22dbd8f4ad" x="127.696542" y="114.29151" style="fill: #4d99ca; stroke: #ffffff; stroke-width: 0.4"/>
    </g>
   </g>
   <g id="line2d_61">
    <g clip-path="url(#p4f35877a90)">
     <use xlink:href="#m22dbd8f4ad" x="136.064527" y="104.315299" style="fill: #4d99ca; stroke: #ffffff; stroke-width: 0.4"/>
    </g>
   </g>
   <g id="line2d_62">
    <g clip-path="url(#p4f35877a90)">
     <use xlink:href="#m22dbd8f4ad" x="144.432511" y="99.327194" style="fill: #4d99ca; stroke: #ffffff; stroke-width: 0.4"/>
    </g>
   </g>
   <g id="line2d_63">
    <defs>
     <path id="m42becc0249" d="M 0 2.5 
C 0.663008 2.5 1.29895 2.236584 1.767767 1.767767 
C 2.236584 1.29895 2.5 0.663008 2.5 0 
C 2.5 -0.663008 2.236584 -1.29895 1.767767 -1.767767 
C 1.29895 -2.236584 0.663008 -2.5 0 -2.5 
C -0.663008 -2.5 -1.29895 -2.236584 -1.767767 -1.767767 
C -2.236584 -1.29895 -2.5 -0.663008 -2.5 0 
C -2.5 0.663008 -2.236584 1.29895 -1.767767 1.767767 
C -1.29895 2.236584 -0.663008 2.5 0 2.5 
z
" style="stroke: #ffffff; stroke-width: 0.4"/>
    </defs>
    <g clip-path="url(#p4f35877a90)">
     <use xlink:href="#m42becc0249" x="102.592589" y="49.446142" style="fill: #2c7cba; stroke: #ffffff; stroke-width: 0.4"/>
    </g>
   </g>
   <g id="line2d_64">
    <g clip-path="url(#p4f35877a90)">
     <use xlink:href="#m42becc0249" x="110.960573" y="44.458037" style="fill: #2c7cba; stroke: #ffffff; stroke-width: 0.4"/>
    </g>
   </g>
   <g id="line2d_65">
    <g clip-path="url(#p4f35877a90)">
     <use xlink:href="#m42becc0249" x="119.328558" y="39.469931" style="fill: #2c7cba; stroke: #ffffff; stroke-width: 0.4"/>
    </g>
   </g>
   <g id="line2d_66">
    <g clip-path="url(#p4f35877a90)">
     <use xlink:href="#m42becc0249" x="169.536465" y="89.350984" style="fill: #2c7cba; stroke: #ffffff; stroke-width: 0.4"/>
    </g>
   </g>
   <g id="line2d_67">
    <g clip-path="url(#p4f35877a90)">
     <use xlink:href="#m42becc0249" x="177.90445" y="84.362878" style="fill: #2c7cba; stroke: #ffffff; stroke-width: 0.4"/>
    </g>
   </g>
   <g id="line2d_68">
    <g clip-path="url(#p4f35877a90)">
     <use xlink:href="#m42becc0249" x="186.272434" y="79.374773" style="fill: #2c7cba; stroke: #ffffff; stroke-width: 0.4"/>
    </g>
   </g>
   <g id="line2d_69">
    <defs>
     <path id="m1586e412bd" d="M 0 2.5 
C 0.663008 2.5 1.29895 2.236584 1.767767 1.767767 
C 2.236584 1.29895 2.5 0.663008 2.5 0 
C 2.5 -0.663008 2.236584 -1.29895 1.767767 -1.767767 
C 1.29895 -2.236584 0.663008 -2.5 0 -2.5 
C -0.663008 -2.5 -1.29895 -2.236584 -1.767767 -1.767767 
C -2.236584 -1.29895 -2.5 -0.663008 -2.5 0 
C -2.5 0.663008 -2.236584 1.29895 -1.767767 1.767767 
C -1.29895 2.236584 -0.663008 2.5 0 2.5 
z
" style="stroke: #ffffff; stroke-width: 0.4"/>
    </defs>
    <g clip-path="url(#p4f35877a90)">
     <use xlink:href="#m1586e412bd" x="110.960573" y="44.458037" style="fill: #115ca5; stroke: #ffffff; stroke-width: 0.4"/>
    </g>
   </g>
   <g id="line2d_70">
    <g clip-path="url(#p4f35877a90)">
     <use xlink:href="#m1586e412bd" x="136.064527" y="24.505616" style="fill: #115ca5; stroke: #ffffff; stroke-width: 0.4"/>
    </g>
   </g>
   <g id="line2d_71">
    <g clip-path="url(#p4f35877a90)">
     <use xlink:href="#m1586e412bd" x="144.432511" y="19.51751" style="fill: #115ca5; stroke: #ffffff; stroke-width: 0.4"/>
    </g>
   </g>
   <g id="line2d_72">
    <g clip-path="url(#p4f35877a90)">
     <use xlink:href="#m1586e412bd" x="177.90445" y="84.362878" style="fill: #115ca5; stroke: #ffffff; stroke-width: 0.4"/>
    </g>
   </g>
   <g id="line2d_73">
    <g clip-path="url(#p4f35877a90)">
     <use xlink:href="#m1586e412bd" x="211.376388" y="69.398563" style="fill: #115ca5; stroke: #ffffff; stroke-width: 0.4"/>
    </g>
   </g>
   <g id="line2d_74">
    <g clip-path="url(#p4f35877a90)">
     <use xlink:href="#m1586e412bd" x="219.744373" y="64.410458" style="fill: #115ca5; stroke: #ffffff; stroke-width: 0.4"/>
    </g>
   </g>
   <g id="line2d_75">
    <defs>
     <path id="mb5e04414e6" d="M 0 2.5 
C 0.663008 2.5 1.29895 2.236584 1.767767 1.767767 
C 2.236584 1.29895 2.5 0.663008 2.5 0 
C 2.5 -0.663008 2.236584 -1.29895 1.767767 -1.767767 
C 1.29895 -2.236584 0.663008 -2.5 0 -2.5 
C -0.663008 -2.5 -1.29895 -2.236584 -1.767767 -1.767767 
C -2.236584 -1.29895 -2.5 -0.663008 -2.5 0 
C -2.5 0.663008 -2.236584 1.29895 -1.767767 1.767767 
C -1.29895 2.236584 -0.663008 2.5 0 2.5 
z
" style="stroke: #ffffff; stroke-width: 0.4"/>
    </defs>
    <g clip-path="url(#p4f35877a90)">
     <use xlink:href="#mb5e04414e6" x="152.800496" y="19.51751" style="fill: #083c7d; stroke: #ffffff; stroke-width: 0.4"/>
    </g>
   </g>
   <g id="line2d_76">
    <g clip-path="url(#p4f35877a90)">
     <use xlink:href="#mb5e04414e6" x="219.744373" y="59.422352" style="fill: #083c7d; stroke: #ffffff; stroke-width: 0.4"/>
    </g>
   </g>
   <g id="line2d_77">
    <path d="M 44.016696 124.26772 
L 219.744373 19.51751 
" clip-path="url(#p4f35877a90)" style="fill: none; stroke-dasharray: 1.85,0.8; stroke-dashoffset: 0; stroke: #4d4d4d; stroke-opacity: 0.6; stroke-width: 0.5"/>
   </g>
   <g id="patch_3">
    <path d="M 35.230312 129.505231 
L 35.230312 14.28 
" style="fill: none; stroke: #000000; stroke-width: 0.8; stroke-linejoin: miter; stroke-linecap: square"/>
   </g>
   <g id="patch_4">
    <path d="M 35.230313 129.505231 
L 228.530757 129.505231 
" style="fill: none; stroke: #000000; stroke-width: 0.8; stroke-linejoin: miter; stroke-linecap: square"/>
   </g>
   <g id="text_7">
    <!-- NE locations across symmetric $B/C$ ratios -->
    <g transform="translate(39.405535 8.28) scale(0.09 -0.09)">
     <defs>
      <path id="DejaVuSans-4e" d="M 628 4666 
L 1478 4666 
L 3547 763 
L 3547 4666 
L 4159 4666 
L 4159 0 
L 3309 0 
L 1241 3903 
L 1241 0 
L 628 0 
L 628 4666 
z
" transform="scale(0.015625)"/>
      <path id="DejaVuSans-45" d="M 628 4666 
L 3578 4666 
L 3578 4134 
L 1259 4134 
L 1259 2753 
L 3481 2753 
L 3481 2222 
L 1259 2222 
L 1259 531 
L 3634 531 
L 3634 0 
L 628 0 
L 628 4666 
z
" transform="scale(0.015625)"/>
      <path id="DejaVuSans-20" transform="scale(0.015625)"/>
      <path id="DejaVuSans-6c" d="M 603 4863 
L 1178 4863 
L 1178 0 
L 603 0 
L 603 4863 
z
" transform="scale(0.015625)"/>
      <path id="DejaVuSans-6f" d="M 1959 3097 
Q 1497 3097 1228 2736 
Q 959 2375 959 1747 
Q 959 1119 1226 758 
Q 1494 397 1959 397 
Q 2419 397 2687 759 
Q 2956 1122 2956 1747 
Q 2956 2369 2687 2733 
Q 2419 3097 1959 3097 
z
M 1959 3584 
Q 2709 3584 3137 3096 
Q 3566 2609 3566 1747 
Q 3566 888 3137 398 
Q 2709 -91 1959 -91 
Q 1206 -91 779 398 
Q 353 888 353 1747 
Q 353 2609 779 3096 
Q 1206 3584 1959 3584 
z
" transform="scale(0.015625)"/>
      <path id="DejaVuSans-63" d="M 3122 3366 
L 3122 2828 
Q 2878 2963 2633 3030 
Q 2388 3097 2138 3097 
Q 1578 3097 1268 2742 
Q 959 2388 959 1747 
Q 959 1106 1268 751 
Q 1578 397 2138 397 
Q 2388 397 2633 464 
Q 2878 531 3122 666 
L 3122 134 
Q 2881 22 2623 -34 
Q 2366 -91 2075 -91 
Q 1284 -91 818 406 
Q 353 903 353 1747 
Q 353 2603 823 3093 
Q 1294 3584 2113 3584 
Q 2378 3584 2631 3529 
Q 2884 3475 3122 3366 
z
" transform="scale(0.015625)"/>
      <path id="DejaVuSans-61" d="M 2194 1759 
Q 1497 1759 1228 1600 
Q 959 1441 959 1056 
Q 959 750 1161 570 
Q 1363 391 1709 391 
Q 2188 391 2477 730 
Q 2766 1069 2766 1631 
L 2766 1759 
L 2194 1759 
z
M 3341 1997 
L 3341 0 
L 2766 0 
L 2766 531 
Q 2569 213 2275 61 
Q 1981 -91 1556 -91 
Q 1019 -91 701 211 
Q 384 513 384 1019 
Q 384 1609 779 1909 
Q 1175 2209 1959 2209 
L 2766 2209 
L 2766 2266 
Q 2766 2663 2505 2880 
Q 2244 3097 1772 3097 
Q 1472 3097 1187 3025 
Q 903 2953 641 2809 
L 641 3341 
Q 956 3463 1253 3523 
Q 1550 3584 1831 3584 
Q 2591 3584 2966 3190 
Q 3341 2797 3341 1997 
z
" transform="scale(0.015625)"/>
      <path id="DejaVuSans-74" d="M 1172 4494 
L 1172 3500 
L 2356 3500 
L 2356 3053 
L 1172 3053 
L 1172 1153 
Q 1172 725 1289 603 
Q 1406 481 1766 481 
L 2356 481 
L 2356 0 
L 1766 0 
Q 1100 0 847 248 
Q 594 497 594 1153 
L 594 3053 
L 172 3053 
L 172 3500 
L 594 3500 
L 594 4494 
L 1172 4494 
z
" transform="scale(0.015625)"/>
      <path id="DejaVuSans-69" d="M 603 3500 
L 1178 3500 
L 1178 0 
L 603 0 
L 603 3500 
z
M 603 4863 
L 1178 4863 
L 1178 4134 
L 603 4134 
L 603 4863 
z
" transform="scale(0.015625)"/>
      <path id="DejaVuSans-6e" d="M 3513 2113 
L 3513 0 
L 2938 0 
L 2938 2094 
Q 2938 2591 2744 2837 
Q 2550 3084 2163 3084 
Q 1697 3084 1428 2787 
Q 1159 2491 1159 1978 
L 1159 0 
L 581 0 
L 581 3500 
L 1159 3500 
L 1159 2956 
Q 1366 3272 1645 3428 
Q 1925 3584 2291 3584 
Q 2894 3584 3203 3211 
Q 3513 2838 3513 2113 
z
" transform="scale(0.015625)"/>
      <path id="DejaVuSans-73" d="M 2834 3397 
L 2834 2853 
Q 2591 2978 2328 3040 
Q 2066 3103 1784 3103 
Q 1356 3103 1142 2972 
Q 928 2841 928 2578 
Q 928 2378 1081 2264 
Q 1234 2150 1697 2047 
L 1894 2003 
Q 2506 1872 2764 1633 
Q 3022 1394 3022 966 
Q 3022 478 2636 193 
Q 2250 -91 1575 -91 
Q 1294 -91 989 -36 
Q 684 19 347 128 
L 347 722 
Q 666 556 975 473 
Q 1284 391 1588 391 
Q 1994 391 2212 530 
Q 2431 669 2431 922 
Q 2431 1156 2273 1281 
Q 2116 1406 1581 1522 
L 1381 1569 
Q 847 1681 609 1914 
Q 372 2147 372 2553 
Q 372 3047 722 3315 
Q 1072 3584 1716 3584 
Q 2034 3584 2315 3537 
Q 2597 3491 2834 3397 
z
" transform="scale(0.015625)"/>
      <path id="DejaVuSans-72" d="M 2631 2963 
Q 2534 3019 2420 3045 
Q 2306 3072 2169 3072 
Q 1681 3072 1420 2755 
Q 1159 2438 1159 1844 
L 1159 0 
L 581 0 
L 581 3500 
L 1159 3500 
L 1159 2956 
Q 1341 3275 1631 3429 
Q 1922 3584 2338 3584 
Q 2397 3584 2469 3576 
Q 2541 3569 2628 3553 
L 2631 2963 
z
" transform="scale(0.015625)"/>
      <path id="DejaVuSans-79" d="M 2059 -325 
Q 1816 -950 1584 -1140 
Q 1353 -1331 966 -1331 
L 506 -1331 
L 506 -850 
L 844 -850 
Q 1081 -850 1212 -737 
Q 1344 -625 1503 -206 
L 1606 56 
L 191 3500 
L 800 3500 
L 1894 763 
L 2988 3500 
L 3597 3500 
L 2059 -325 
z
" transform="scale(0.015625)"/>
      <path id="DejaVuSans-6d" d="M 3328 2828 
Q 3544 3216 3844 3400 
Q 4144 3584 4550 3584 
Q 5097 3584 5394 3201 
Q 5691 2819 5691 2113 
L 5691 0 
L 5113 0 
L 5113 2094 
Q 5113 2597 4934 2840 
Q 4756 3084 4391 3084 
Q 3944 3084 3684 2787 
Q 3425 2491 3425 1978 
L 3425 0 
L 2847 0 
L 2847 2094 
Q 2847 2600 2669 2842 
Q 2491 3084 2119 3084 
Q 1678 3084 1418 2786 
Q 1159 2488 1159 1978 
L 1159 0 
L 581 0 
L 581 3500 
L 1159 3500 
L 1159 2956 
Q 1356 3278 1631 3431 
Q 1906 3584 2284 3584 
Q 2666 3584 2933 3390 
Q 3200 3197 3328 2828 
z
" transform="scale(0.015625)"/>
      <path id="DejaVuSans-65" d="M 3597 1894 
L 3597 1613 
L 953 1613 
Q 991 1019 1311 708 
Q 1631 397 2203 397 
Q 2534 397 2845 478 
Q 3156 559 3463 722 
L 3463 178 
Q 3153 47 2828 -22 
Q 2503 -91 2169 -91 
Q 1331 -91 842 396 
Q 353 884 353 1716 
Q 353 2575 817 3079 
Q 1281 3584 2069 3584 
Q 2775 3584 3186 3129 
Q 3597 2675 3597 1894 
z
M 3022 2063 
Q 3016 2534 2758 2815 
Q 2500 3097 2075 3097 
Q 1594 3097 1305 2825 
Q 1016 2553 972 2059 
L 3022 2063 
z
" transform="scale(0.015625)"/>
      <path id="DejaVuSans-Oblique-42" d="M 1081 4666 
L 2694 4666 
Q 3350 4666 3675 4422 
Q 4000 4178 4000 3688 
Q 4000 3238 3720 2911 
Q 3441 2584 2988 2516 
Q 3375 2428 3569 2181 
Q 3763 1934 3763 1522 
Q 3763 819 3242 409 
Q 2722 0 1819 0 
L 172 0 
L 1081 4666 
z
M 1234 2228 
L 903 519 
L 1919 519 
Q 2491 519 2800 781 
Q 3109 1044 3109 1522 
Q 3109 1891 2904 2059 
Q 2700 2228 2247 2228 
L 1234 2228 
z
M 1606 4147 
L 1331 2741 
L 2272 2741 
Q 2775 2741 3058 2959 
Q 3341 3178 3341 3566 
Q 3341 3869 3150 4008 
Q 2959 4147 2541 4147 
L 1606 4147 
z
" transform="scale(0.015625)"/>
      <path id="DejaVuSans-2f" d="M 1625 4666 
L 2156 4666 
L 531 -594 
L 0 -594 
L 1625 4666 
z
" transform="scale(0.015625)"/>
      <path id="DejaVuSans-Oblique-43" d="M 4447 4306 
L 4319 3641 
Q 4019 3944 3683 4091 
Q 3347 4238 2956 4238 
Q 2422 4238 2017 3981 
Q 1613 3725 1319 3200 
Q 1131 2863 1032 2486 
Q 934 2109 934 1728 
Q 934 1091 1264 756 
Q 1594 422 2222 422 
Q 2656 422 3056 561 
Q 3456 700 3834 978 
L 3688 231 
Q 3316 72 2936 -9 
Q 2556 -91 2175 -91 
Q 1278 -91 773 396 
Q 269 884 269 1753 
Q 269 2309 461 2846 
Q 653 3384 1013 3828 
Q 1394 4300 1883 4525 
Q 2372 4750 3022 4750 
Q 3422 4750 3780 4639 
Q 4138 4528 4447 4306 
z
" transform="scale(0.015625)"/>
     </defs>
     <use xlink:href="#DejaVuSans-4e" transform="translate(0 0.015625)"/>
     <use xlink:href="#DejaVuSans-45" transform="translate(74.804688 0.015625)"/>
     <use xlink:href="#DejaVuSans-20" transform="translate(137.988281 0.015625)"/>
     <use xlink:href="#DejaVuSans-6c" transform="translate(169.775391 0.015625)"/>
     <use xlink:href="#DejaVuSans-6f" transform="translate(197.558594 0.015625)"/>
     <use xlink:href="#DejaVuSans-63" transform="translate(258.740234 0.015625)"/>
     <use xlink:href="#DejaVuSans-61" transform="translate(313.720703 0.015625)"/>
     <use xlink:href="#DejaVuSans-74" transform="translate(375 0.015625)"/>
     <use xlink:href="#DejaVuSans-69" transform="translate(414.208984 0.015625)"/>
     <use xlink:href="#DejaVuSans-6f" transform="translate(441.992188 0.015625)"/>
     <use xlink:href="#DejaVuSans-6e" transform="translate(503.173828 0.015625)"/>
     <use xlink:href="#DejaVuSans-73" transform="translate(566.552734 0.015625)"/>
     <use xlink:href="#DejaVuSans-20" transform="translate(618.652344 0.015625)"/>
     <use xlink:href="#DejaVuSans-61" transform="translate(650.439453 0.015625)"/>
     <use xlink:href="#DejaVuSans-63" transform="translate(711.71875 0.015625)"/>
     <use xlink:href="#DejaVuSans-72" transform="translate(766.699219 0.015625)"/>
     <use xlink:href="#DejaVuSans-6f" transform="translate(807.8125 0.015625)"/>
     <use xlink:href="#DejaVuSans-73" transform="translate(868.994141 0.015625)"/>
     <use xlink:href="#DejaVuSans-73" transform="translate(921.09375 0.015625)"/>
     <use xlink:href="#DejaVuSans-20" transform="translate(973.193359 0.015625)"/>
     <use xlink:href="#DejaVuSans-73" transform="translate(1004.980469 0.015625)"/>
     <use xlink:href="#DejaVuSans-79" transform="translate(1057.080078 0.015625)"/>
     <use xlink:href="#DejaVuSans-6d" transform="translate(1116.259766 0.015625)"/>
     <use xlink:href="#DejaVuSans-6d" transform="translate(1213.671875 0.015625)"/>
     <use xlink:href="#DejaVuSans-65" transform="translate(1311.083984 0.015625)"/>
     <use xlink:href="#DejaVuSans-74" transform="translate(1372.607422 0.015625)"/>
     <use xlink:href="#DejaVuSans-72" transform="translate(1411.816406 0.015625)"/>
     <use xlink:href="#DejaVuSans-69" transform="translate(1452.929688 0.015625)"/>
     <use xlink:href="#DejaVuSans-63" transform="translate(1480.712891 0.015625)"/>
     <use xlink:href="#DejaVuSans-20" transform="translate(1535.693359 0.015625)"/>
     <use xlink:href="#DejaVuSans-Oblique-42" transform="translate(1567.480469 0.015625)"/>
     <use xlink:href="#DejaVuSans-2f" transform="translate(1636.083984 0.015625)"/>
     <use xlink:href="#DejaVuSans-Oblique-43" transform="translate(1669.775391 0.015625)"/>
     <use xlink:href="#DejaVuSans-20" transform="translate(1739.599609 0.015625)"/>
     <use xlink:href="#DejaVuSans-72" transform="translate(1771.386719 0.015625)"/>
     <use xlink:href="#DejaVuSans-61" transform="translate(1812.5 0.015625)"/>
     <use xlink:href="#DejaVuSans-74" transform="translate(1873.779297 0.015625)"/>
     <use xlink:href="#DejaVuSans-69" transform="translate(1912.988281 0.015625)"/>
     <use xlink:href="#DejaVuSans-6f" transform="translate(1940.771484 0.015625)"/>
     <use xlink:href="#DejaVuSans-73" transform="translate(2001.953125 0.015625)"/>
    </g>
   </g>
   <g id="legend_1">
    <g id="line2d_78">
     <path d="M 109.123191 49.431053 
L 115.123191 49.431053 
L 121.123191 49.431053 
" style="fill: none"/>
     <defs>
      <path id="m73fc6d26e9" d="M 0 2.5 
C 0.663008 2.5 1.29895 2.236584 1.767767 1.767767 
C 2.236584 1.29895 2.5 0.663008 2.5 0 
C 2.5 -0.663008 2.236584 -1.29895 1.767767 -1.767767 
C 1.29895 -2.236584 0.663008 -2.5 0 -2.5 
C -0.663008 -2.5 -1.29895 -2.236584 -1.767767 -1.767767 
C -2.236584 -1.29895 -2.5 -0.663008 -2.5 0 
C -2.5 0.663008 -2.236584 1.29895 -1.767767 1.767767 
C -1.29895 2.236584 -0.663008 2.5 0 2.5 
z
" style="stroke: #a6cee4"/>
     </defs>
     <g>
      <use xlink:href="#m73fc6d26e9" x="115.123191" y="49.431053" style="fill: #a6cee4; stroke: #a6cee4"/>
     </g>
    </g>
    <g id="text_8">
     <!-- B/C=0.25 -->
     <g transform="translate(125.923191 51.531053) scale(0.06 -0.06)">
      <defs>
       <path id="DejaVuSans-42" d="M 1259 2228 
L 1259 519 
L 2272 519 
Q 2781 519 3026 730 
Q 3272 941 3272 1375 
Q 3272 1813 3026 2020 
Q 2781 2228 2272 2228 
L 1259 2228 
z
M 1259 4147 
L 1259 2741 
L 2194 2741 
Q 2656 2741 2882 2914 
Q 3109 3088 3109 3444 
Q 3109 3797 2882 3972 
Q 2656 4147 2194 4147 
L 1259 4147 
z
M 628 4666 
L 2241 4666 
Q 2963 4666 3353 4366 
Q 3744 4066 3744 3513 
Q 3744 3084 3544 2831 
Q 3344 2578 2956 2516 
Q 3422 2416 3680 2098 
Q 3938 1781 3938 1306 
Q 3938 681 3513 340 
Q 3088 0 2303 0 
L 628 0 
L 628 4666 
z
" transform="scale(0.015625)"/>
       <path id="DejaVuSans-43" d="M 4122 4306 
L 4122 3641 
Q 3803 3938 3442 4084 
Q 3081 4231 2675 4231 
Q 1875 4231 1450 3742 
Q 1025 3253 1025 2328 
Q 1025 1406 1450 917 
Q 1875 428 2675 428 
Q 3081 428 3442 575 
Q 3803 722 4122 1019 
L 4122 359 
Q 3791 134 3420 21 
Q 3050 -91 2638 -91 
Q 1578 -91 968 557 
Q 359 1206 359 2328 
Q 359 3453 968 4101 
Q 1578 4750 2638 4750 
Q 3056 4750 3426 4639 
Q 3797 4528 4122 4306 
z
" transform="scale(0.015625)"/>
       <path id="DejaVuSans-3d" d="M 678 2906 
L 4684 2906 
L 4684 2381 
L 678 2381 
L 678 2906 
z
M 678 1631 
L 4684 1631 
L 4684 1100 
L 678 1100 
L 678 1631 
z
" transform="scale(0.015625)"/>
       <path id="DejaVuSans-2e" d="M 684 794 
L 1344 794 
L 1344 0 
L 684 0 
L 684 794 
z
" transform="scale(0.015625)"/>
       <path id="DejaVuSans-35" d="M 691 4666 
L 3169 4666 
L 3169 4134 
L 1269 4134 
L 1269 2991 
Q 1406 3038 1543 3061 
Q 1681 3084 1819 3084 
Q 2600 3084 3056 2656 
Q 3513 2228 3513 1497 
Q 3513 744 3044 326 
Q 2575 -91 1722 -91 
Q 1428 -91 1123 -41 
Q 819 9 494 109 
L 494 744 
Q 775 591 1075 516 
Q 1375 441 1709 441 
Q 2250 441 2565 725 
Q 2881 1009 2881 1497 
Q 2881 1984 2565 2268 
Q 2250 2553 1709 2553 
Q 1456 2553 1204 2497 
Q 953 2441 691 2322 
L 691 4666 
z
" transform="scale(0.015625)"/>
      </defs>
      <use xlink:href="#DejaVuSans-42"/>
      <use xlink:href="#DejaVuSans-2f" x="68.603516"/>
      <use xlink:href="#DejaVuSans-43" x="102.294922"/>
      <use xlink:href="#DejaVuSans-3d" x="172.119141"/>
      <use xlink:href="#DejaVuSans-30" x="255.908203"/>
      <use xlink:href="#DejaVuSans-2e" x="319.53125"/>
      <use xlink:href="#DejaVuSans-32" x="351.318359"/>
      <use xlink:href="#DejaVuSans-35" x="414.941406"/>
     </g>
    </g>
    <g id="line2d_79">
     <path d="M 109.123191 58.237928 
L 115.123191 58.237928 
L 121.123191 58.237928 
" style="fill: none"/>
     <defs>
      <path id="m4a99820047" d="M 0 2.5 
C 0.663008 2.5 1.29895 2.236584 1.767767 1.767767 
C 2.236584 1.29895 2.5 0.663008 2.5 0 
C 2.5 -0.663008 2.236584 -1.29895 1.767767 -1.767767 
C 1.29895 -2.236584 0.663008 -2.5 0 -2.5 
C -0.663008 -2.5 -1.29895 -2.236584 -1.767767 -1.767767 
C -2.236584 -1.29895 -2.5 -0.663008 -2.5 0 
C -2.5 0.663008 -2.236584 1.29895 -1.767767 1.767767 
C -1.29895 2.236584 -0.663008 2.5 0 2.5 
z
" style="stroke: #77b5d9"/>
     </defs>
     <g>
      <use xlink:href="#m4a99820047" x="115.123191" y="58.237928" style="fill: #77b5d9; stroke: #77b5d9"/>
     </g>
    </g>
    <g id="text_9">
     <!-- B/C=0.5 -->
     <g transform="translate(125.923191 60.337928) scale(0.06 -0.06)">
      <use xlink:href="#DejaVuSans-42"/>
      <use xlink:href="#DejaVuSans-2f" x="68.603516"/>
      <use xlink:href="#DejaVuSans-43" x="102.294922"/>
      <use xlink:href="#DejaVuSans-3d" x="172.119141"/>
      <use xlink:href="#DejaVuSans-30" x="255.908203"/>
      <use xlink:href="#DejaVuSans-2e" x="319.53125"/>
      <use xlink:href="#DejaVuSans-35" x="351.318359"/>
     </g>
    </g>
    <g id="line2d_80">
     <path d="M 109.123191 67.044803 
L 115.123191 67.044803 
L 121.123191 67.044803 
" style="fill: none"/>
     <defs>
      <path id="mda5478356b" d="M 0 2.5 
C 0.663008 2.5 1.29895 2.236584 1.767767 1.767767 
C 2.236584 1.29895 2.5 0.663008 2.5 0 
C 2.5 -0.663008 2.236584 -1.29895 1.767767 -1.767767 
C 1.29895 -2.236584 0.663008 -2.5 0 -2.5 
C -0.663008 -2.5 -1.29895 -2.236584 -1.767767 -1.767767 
C -2.236584 -1.29895 -2.5 -0.663008 -2.5 0 
C -2.5 0.663008 -2.236584 1.29895 -1.767767 1.767767 
C -1.29895 2.236584 -0.663008 2.5 0 2.5 
z
" style="stroke: #4d99ca"/>
     </defs>
     <g>
      <use xlink:href="#mda5478356b" x="115.123191" y="67.044803" style="fill: #4d99ca; stroke: #4d99ca"/>
     </g>
    </g>
    <g id="text_10">
     <!-- B/C=1 -->
     <g transform="translate(125.923191 69.144803) scale(0.06 -0.06)">
      <use xlink:href="#DejaVuSans-42"/>
      <use xlink:href="#DejaVuSans-2f" x="68.603516"/>
      <use xlink:href="#DejaVuSans-43" x="102.294922"/>
      <use xlink:href="#DejaVuSans-3d" x="172.119141"/>
      <use xlink:href="#DejaVuSans-31" x="255.908203"/>
     </g>
    </g>
    <g id="line2d_81">
     <path d="M 109.123191 75.851678 
L 115.123191 75.851678 
L 121.123191 75.851678 
" style="fill: none"/>
     <defs>
      <path id="maa2439ae15" d="M 0 2.5 
C 0.663008 2.5 1.29895 2.236584 1.767767 1.767767 
C 2.236584 1.29895 2.5 0.663008 2.5 0 
C 2.5 -0.663008 2.236584 -1.29895 1.767767 -1.767767 
C 1.29895 -2.236584 0.663008 -2.5 0 -2.5 
C -0.663008 -2.5 -1.29895 -2.236584 -1.767767 -1.767767 
C -2.236584 -1.29895 -2.5 -0.663008 -2.5 0 
C -2.5 0.663008 -2.236584 1.29895 -1.767767 1.767767 
C -1.29895 2.236584 -0.663008 2.5 0 2.5 
z
" style="stroke: #2c7cba"/>
     </defs>
     <g>
      <use xlink:href="#maa2439ae15" x="115.123191" y="75.851678" style="fill: #2c7cba; stroke: #2c7cba"/>
     </g>
    </g>
    <g id="text_11">
     <!-- B/C=2 -->
     <g transform="translate(125.923191 77.951678) scale(0.06 -0.06)">
      <use xlink:href="#DejaVuSans-42"/>
      <use xlink:href="#DejaVuSans-2f" x="68.603516"/>
      <use xlink:href="#DejaVuSans-43" x="102.294922"/>
      <use xlink:href="#DejaVuSans-3d" x="172.119141"/>
      <use xlink:href="#DejaVuSans-32" x="255.908203"/>
     </g>
    </g>
    <g id="line2d_82">
     <path d="M 109.123191 84.658553 
L 115.123191 84.658553 
L 121.123191 84.658553 
" style="fill: none"/>
     <defs>
      <path id="m97e1b6d0b3" d="M 0 2.5 
C 0.663008 2.5 1.29895 2.236584 1.767767 1.767767 
C 2.236584 1.29895 2.5 0.663008 2.5 0 
C 2.5 -0.663008 2.236584 -1.29895 1.767767 -1.767767 
C 1.29895 -2.236584 0.663008 -2.5 0 -2.5 
C -0.663008 -2.5 -1.29895 -2.236584 -1.767767 -1.767767 
C -2.236584 -1.29895 -2.5 -0.663008 -2.5 0 
C -2.5 0.663008 -2.236584 1.29895 -1.767767 1.767767 
C -1.29895 2.236584 -0.663008 2.5 0 2.5 
z
" style="stroke: #115ca5"/>
     </defs>
     <g>
      <use xlink:href="#m97e1b6d0b3" x="115.123191" y="84.658553" style="fill: #115ca5; stroke: #115ca5"/>
     </g>
    </g>
    <g id="text_12">
     <!-- B/C=4 -->
     <g transform="translate(125.923191 86.758553) scale(0.06 -0.06)">
      <defs>
       <path id="DejaVuSans-34" d="M 2419 4116 
L 825 1625 
L 2419 1625 
L 2419 4116 
z
M 2253 4666 
L 3047 4666 
L 3047 1625 
L 3713 1625 
L 3713 1100 
L 3047 1100 
L 3047 0 
L 2419 0 
L 2419 1100 
L 313 1100 
L 313 1709 
L 2253 4666 
z
" transform="scale(0.015625)"/>
      </defs>
      <use xlink:href="#DejaVuSans-42"/>
      <use xlink:href="#DejaVuSans-2f" x="68.603516"/>
      <use xlink:href="#DejaVuSans-43" x="102.294922"/>
      <use xlink:href="#DejaVuSans-3d" x="172.119141"/>
      <use xlink:href="#DejaVuSans-34" x="255.908203"/>
     </g>
    </g>
    <g id="line2d_83">
     <path d="M 109.123191 93.465428 
L 115.123191 93.465428 
L 121.123191 93.465428 
" style="fill: none"/>
     <defs>
      <path id="mf52581f8b2" d="M 0 2.5 
C 0.663008 2.5 1.29895 2.236584 1.767767 1.767767 
C 2.236584 1.29895 2.5 0.663008 2.5 0 
C 2.5 -0.663008 2.236584 -1.29895 1.767767 -1.767767 
C 1.29895 -2.236584 0.663008 -2.5 0 -2.5 
C -0.663008 -2.5 -1.29895 -2.236584 -1.767767 -1.767767 
C -2.236584 -1.29895 -2.5 -0.663008 -2.5 0 
C -2.5 0.663008 -2.236584 1.29895 -1.767767 1.767767 
C -1.29895 2.236584 -0.663008 2.5 0 2.5 
z
" style="stroke: #083c7d"/>
     </defs>
     <g>
      <use xlink:href="#mf52581f8b2" x="115.123191" y="93.465428" style="fill: #083c7d; stroke: #083c7d"/>
     </g>
    </g>
    <g id="text_13">
     <!-- B/C=8 -->
     <g transform="translate(125.923191 95.565428) scale(0.06 -0.06)">
      <defs>
       <path id="DejaVuSans-38" d="M 2034 2216 
Q 1584 2216 1326 1975 
Q 1069 1734 1069 1313 
Q 1069 891 1326 650 
Q 1584 409 2034 409 
Q 2484 409 2743 651 
Q 3003 894 3003 1313 
Q 3003 1734 2745 1975 
Q 2488 2216 2034 2216 
z
M 1403 2484 
Q 997 2584 770 2862 
Q 544 3141 544 3541 
Q 544 4100 942 4425 
Q 1341 4750 2034 4750 
Q 2731 4750 3128 4425 
Q 3525 4100 3525 3541 
Q 3525 3141 3298 2862 
Q 3072 2584 2669 2484 
Q 3125 2378 3379 2068 
Q 3634 1759 3634 1313 
Q 3634 634 3220 271 
Q 2806 -91 2034 -91 
Q 1263 -91 848 271 
Q 434 634 434 1313 
Q 434 1759 690 2068 
Q 947 2378 1403 2484 
z
M 1172 3481 
Q 1172 3119 1398 2916 
Q 1625 2713 2034 2713 
Q 2441 2713 2670 2916 
Q 2900 3119 2900 3481 
Q 2900 3844 2670 4047 
Q 2441 4250 2034 4250 
Q 1625 4250 1398 4047 
Q 1172 3844 1172 3481 
z
" transform="scale(0.015625)"/>
      </defs>
      <use xlink:href="#DejaVuSans-42"/>
      <use xlink:href="#DejaVuSans-2f" x="68.603516"/>
      <use xlink:href="#DejaVuSans-43" x="102.294922"/>
      <use xlink:href="#DejaVuSans-3d" x="172.119141"/>
      <use xlink:href="#DejaVuSans-38" x="255.908203"/>
     </g>
    </g>
   </g>
  </g>
 </g>
 <defs>
  <clipPath id="p4f35877a90">
   <rect x="35.230312" y="14.28" width="193.300444" height="115.225231"/>
  </clipPath>
 </defs>
</svg>
