<?xml version="1.0" encoding="utf-8" standalone="no"?>
<!DOCTYPE svg PUBLIC "-//W3C//DTD SVG 1.1//EN"
  "http://www.w3.org/Graphics/SVG/1.1/DTD/svg11.dtd">
<svg xmlns:xlink="http://www.w3.org/1999/xlink" width="247.845535pt" height="158.398043pt" viewBox="0 0 247.845535 158.398043" xmlns="http://www.w3.org/2000/svg" version="1.1">
 <metadata>
  <rdf:RDF xmlns:dc="http://purl.org/dc/elements/1.1/" xmlns:cc="http://creativecommons.org/ns#" xmlns:rdf="http://www.w3.org/1999/02/22-rdf-syntax-ns#">
   <cc:Work>
    <dc:type rdf:resource="http://purl.org/dc/dcmitype/StillImage"/>
    <dc:date>2026-06-30T16:55:35.440886</dc:date>
    <dc:format>image/svg+xml</dc:format>
    <dc:creator>
     <cc:Agent>
      <dc:title>Matplotlib v3.9.2, https://matplotlib.org/</dc:title>
     </cc:Agent>
    </dc:creator>
   </cc:Work>
  </rdf:RDF>
 </metadata>
 <defs>
  <style type="text/css">*{stroke-linejoin: round; stroke-linecap: butt}</style>
 </defs>
 <g id="figure_1">
  <g id="patch_1">
   <path d="M 0 158.398043 
L 247.845535 158.398043 
L 247.845535 0 
L 0 0 
z
" style="fill: #ffffff"/>
  </g>
  <g id="axes_1">
   <g id="patch_2">
    <path d="M 35.230312 129.505231 
L 228.530757 129.505231 
L 228.530757 14.28 
L 35.230312 14.28 
z
" style="fill: #ffffff"/>
   </g>
   <g id="matplotlib.axis_1">
    <g id="xtick_1">
     <g id="line2d_1">
      <path d="M 69.12065 129.505231 
L 69.12065 14.28 
" clip-path="url(#p96fee04d2c)" style="fill: none; stroke-dasharray: 1.85,0.8; stroke-dashoffset: 0; stroke: #b0b0b0; stroke-opacity: 0.3; stroke-width: 0.5"/>
     </g>
     <g id="line2d_2">
      <defs>
       <path id="m1f8b024763" d="M 0 0 
L 0 3.5 
" style="stroke: #000000; stroke-width: 0.8"/>
      </defs>
      <g>
       <use xlink:href="#m1f8b024763" x="69.12065" y="129.505231" style="stroke: #000000; stroke-width: 0.8"/>
      </g>
     </g>
     <g id="text_1">
      <!-- $\mathdefault{10^{0}}$ -->
      <g transform="translate(62.08065 142.583981) scale(0.08 -0.08)">
       <defs>
        <path id="DejaVuSans-31" d="M 794 531 
L 1825 531 
L 1825 4091 
L 703 3866 
L 703 4441 
L 1819 4666 
L 2450 4666 
L 2450 531 
L 3481 531 
L 3481 0 
L 794 0 
L 794 531 
z
" transform="scale(0.015625)"/>
        <path id="DejaVuSans-30" d="M 2034 4250 
Q 1547 4250 1301 3770 
Q 1056 3291 1056 2328 
Q 1056 1369 1301 889 
Q 1547 409 2034 409 
Q 2525 409 2770 889 
Q 3016 1369 3016 2328 
Q 3016 3291 2770 3770 
Q 2525 4250 2034 4250 
z
M 2034 4750 
Q 2819 4750 3233 4129 
Q 3647 3509 3647 2328 
Q 3647 1150 3233 529 
Q 2819 -91 2034 -91 
Q 1250 -91 836 529 
Q 422 1150 422 2328 
Q 422 3509 836 4129 
Q 1250 4750 2034 4750 
z
" transform="scale(0.015625)"/>
       </defs>
       <use xlink:href="#DejaVuSans-31" transform="translate(0 0.765625)"/>
       <use xlink:href="#DejaVuSans-30" transform="translate(63.623047 0.765625)"/>
       <use xlink:href="#DejaVuSans-30" transform="translate(128.203125 39.046875) scale(0.7)"/>
      </g>
     </g>
    </g>
    <g id="xtick_2">
     <g id="line2d_3">
      <path d="M 152.51418 129.505231 
L 152.51418 14.28 
" clip-path="url(#p96fee04d2c)" style="fill: none; stroke-dasharray: 1.85,0.8; stroke-dashoffset: 0; stroke: #b0b0b0; stroke-opacity: 0.3; stroke-width: 0.5"/>
     </g>
     <g id="line2d_4">
      <g>
       <use xlink:href="#m1f8b024763" x="152.51418" y="129.505231" style="stroke: #000000; stroke-width: 0.8"/>
      </g>
     </g>
     <g id="text_2">
      <!-- $\mathdefault{10^{1}}$ -->
      <g transform="translate(145.47418 142.583981) scale(0.08 -0.08)">
       <use xlink:href="#DejaVuSans-31" transform="translate(0 0.684375)"/>
       <use xlink:href="#DejaVuSans-30" transform="translate(63.623047 0.684375)"/>
       <use xlink:href="#DejaVuSans-31" transform="translate(128.203125 38.965625) scale(0.7)"/>
      </g>
     </g>
    </g>
    <g id="xtick_3">
     <g id="line2d_5">
      <defs>
       <path id="m55caec7d37" d="M 0 0 
L 0 2 
" style="stroke: #000000; stroke-width: 0.6"/>
      </defs>
      <g>
       <use xlink:href="#m55caec7d37" x="35.935028" y="129.505231" style="stroke: #000000; stroke-width: 0.6"/>
      </g>
     </g>
    </g>
    <g id="xtick_4">
     <g id="line2d_6">
      <g>
       <use xlink:href="#m55caec7d37" x="44.016696" y="129.505231" style="stroke: #000000; stroke-width: 0.6"/>
      </g>
     </g>
    </g>
    <g id="xtick_5">
     <g id="line2d_7">
      <g>
       <use xlink:href="#m55caec7d37" x="50.6199" y="129.505231" style="stroke: #000000; stroke-width: 0.6"/>
      </g>
     </g>
    </g>
    <g id="xtick_6">
     <g id="line2d_8">
      <g>
       <use xlink:href="#m55caec7d37" x="56.202829" y="129.505231" style="stroke: #000000; stroke-width: 0.6"/>
      </g>
     </g>
    </g>
    <g id="xtick_7">
     <g id="line2d_9">
      <g>
       <use xlink:href="#m55caec7d37" x="61.038982" y="129.505231" style="stroke: #000000; stroke-width: 0.6"/>
      </g>
     </g>
    </g>
    <g id="xtick_8">
     <g id="line2d_10">
      <g>
       <use xlink:href="#m55caec7d37" x="65.304771" y="129.505231" style="stroke: #000000; stroke-width: 0.6"/>
      </g>
     </g>
    </g>
    <g id="xtick_9">
     <g id="line2d_11">
      <g>
       <use xlink:href="#m55caec7d37" x="94.224604" y="129.505231" style="stroke: #000000; stroke-width: 0.6"/>
      </g>
     </g>
    </g>
    <g id="xtick_10">
     <g id="line2d_12">
      <g>
       <use xlink:href="#m55caec7d37" x="108.909475" y="129.505231" style="stroke: #000000; stroke-width: 0.6"/>
      </g>
     </g>
    </g>
    <g id="xtick_11">
     <g id="line2d_13">
      <g>
       <use xlink:href="#m55caec7d37" x="119.328558" y="129.505231" style="stroke: #000000; stroke-width: 0.6"/>
      </g>
     </g>
    </g>
    <g id="xtick_12">
     <g id="line2d_14">
      <g>
       <use xlink:href="#m55caec7d37" x="127.410226" y="129.505231" style="stroke: #000000; stroke-width: 0.6"/>
      </g>
     </g>
    </g>
    <g id="xtick_13">
     <g id="line2d_15">
      <g>
       <use xlink:href="#m55caec7d37" x="134.013429" y="129.505231" style="stroke: #000000; stroke-width: 0.6"/>
      </g>
     </g>
    </g>
    <g id="xtick_14">
     <g id="line2d_16">
      <g>
       <use xlink:href="#m55caec7d37" x="139.596358" y="129.505231" style="stroke: #000000; stroke-width: 0.6"/>
      </g>
     </g>
    </g>
    <g id="xtick_15">
     <g id="line2d_17">
      <g>
       <use xlink:href="#m55caec7d37" x="144.432511" y="129.505231" style="stroke: #000000; stroke-width: 0.6"/>
      </g>
     </g>
    </g>
    <g id="xtick_16">
     <g id="line2d_18">
      <g>
       <use xlink:href="#m55caec7d37" x="148.698301" y="129.505231" style="stroke: #000000; stroke-width: 0.6"/>
      </g>
     </g>
    </g>
    <g id="xtick_17">
     <g id="line2d_19">
      <g>
       <use xlink:href="#m55caec7d37" x="177.618133" y="129.505231" style="stroke: #000000; stroke-width: 0.6"/>
      </g>
     </g>
    </g>
    <g id="xtick_18">
     <g id="line2d_20">
      <g>
       <use xlink:href="#m55caec7d37" x="192.303005" y="129.505231" style="stroke: #000000; stroke-width: 0.6"/>
      </g>
     </g>
    </g>
    <g id="xtick_19">
     <g id="line2d_21">
      <g>
       <use xlink:href="#m55caec7d37" x="202.722087" y="129.505231" style="stroke: #000000; stroke-width: 0.6"/>
      </g>
     </g>
    </g>
    <g id="xtick_20">
     <g id="line2d_22">
      <g>
       <use xlink:href="#m55caec7d37" x="210.803755" y="129.505231" style="stroke: #000000; stroke-width: 0.6"/>
      </g>
     </g>
    </g>
    <g id="xtick_21">
     <g id="line2d_23">
      <g>
       <use xlink:href="#m55caec7d37" x="217.406959" y="129.505231" style="stroke: #000000; stroke-width: 0.6"/>
      </g>
     </g>
    </g>
    <g id="xtick_22">
     <g id="line2d_24">
      <g>
       <use xlink:href="#m55caec7d37" x="222.989888" y="129.505231" style="stroke: #000000; stroke-width: 0.6"/>
      </g>
     </g>
    </g>
    <g id="xtick_23">
     <g id="line2d_25">
      <g>
       <use xlink:href="#m55caec7d37" x="227.826041" y="129.505231" style="stroke: #000000; stroke-width: 0.6"/>
      </g>
     </g>
    </g>
    <g id="text_3">
     <!-- $\varepsilon_1$ -->
     <g transform="translate(127.290535 155.086325) scale(0.09 -0.09)">
      <defs>
       <path id="DejaVuSans-Oblique-3b5" d="M 1263 1888 
Q 925 1963 778 2166 
Q 669 2309 669 2503 
Q 669 3034 1175 3344 
Q 1575 3588 2188 3588 
Q 2425 3588 2684 3550 
Q 2944 3513 3234 3438 
L 3134 2916 
Q 2847 3006 2606 3047 
Q 2359 3088 2138 3088 
Q 1766 3088 1522 2944 
Q 1228 2772 1228 2522 
Q 1228 2356 1381 2241 
Q 1563 2103 1925 2103 
L 2409 2103 
L 2319 1628 
L 1856 1628 
Q 1425 1628 1172 1469 
Q 828 1253 828 916 
Q 828 703 1013 563 
Q 1244 388 1716 388 
Q 2006 388 2284 444 
Q 2563 503 2806 619 
L 2700 84 
Q 2403 -3 2131 -47 
Q 1859 -91 1609 -91 
Q 866 -91 516 194 
Q 250 413 250 781 
Q 250 1278 600 1584 
Q 859 1813 1263 1888 
z
" transform="scale(0.015625)"/>
      </defs>
      <use xlink:href="#DejaVuSans-Oblique-3b5" transform="translate(0 0.9375)"/>
      <use xlink:href="#DejaVuSans-31" transform="translate(54.052734 -15.46875) scale(0.7)"/>
     </g>
    </g>
   </g>
   <g id="matplotlib.axis_2">
    <g id="ytick_1">
     <g id="line2d_26">
      <path d="M 35.230312 109.303405 
L 228.530757 109.303405 
" clip-path="url(#p96fee04d2c)" style="fill: none; stroke-dasharray: 1.85,0.8; stroke-dashoffset: 0; stroke: #b0b0b0; stroke-opacity: 0.3; stroke-width: 0.5"/>
     </g>
     <g id="line2d_27">
      <defs>
       <path id="m1e77b4e49d" d="M 0 0 
L -3.5 0 
" style="stroke: #000000; stroke-width: 0.8"/>
      </defs>
      <g>
       <use xlink:href="#m1e77b4e49d" x="35.230312" y="109.303405" style="stroke: #000000; stroke-width: 0.8"/>
      </g>
     </g>
     <g id="text_4">
      <!-- $\mathdefault{10^{0}}$ -->
      <g transform="translate(14.150312 112.34278) scale(0.08 -0.08)">
       <use xlink:href="#DejaVuSans-31" transform="translate(0 0.765625)"/>
       <use xlink:href="#DejaVuSans-30" transform="translate(63.623047 0.765625)"/>
       <use xlink:href="#DejaVuSans-30" transform="translate(128.203125 39.046875) scale(0.7)"/>
      </g>
     </g>
    </g>
    <g id="ytick_2">
     <g id="line2d_28">
      <path d="M 35.230312 59.593024 
L 228.530757 59.593024 
" clip-path="url(#p96fee04d2c)" style="fill: none; stroke-dasharray: 1.85,0.8; stroke-dashoffset: 0; stroke: #b0b0b0; stroke-opacity: 0.3; stroke-width: 0.5"/>
     </g>
     <g id="line2d_29">
      <g>
       <use xlink:href="#m1e77b4e49d" x="35.230312" y="59.593024" style="stroke: #000000; stroke-width: 0.8"/>
      </g>
     </g>
     <g id="text_5">
      <!-- $\mathdefault{10^{1}}$ -->
      <g transform="translate(14.150312 62.632399) scale(0.08 -0.08)">
       <use xlink:href="#DejaVuSans-31" transform="translate(0 0.684375)"/>
       <use xlink:href="#DejaVuSans-30" transform="translate(63.623047 0.684375)"/>
       <use xlink:href="#DejaVuSans-31" transform="translate(128.203125 38.965625) scale(0.7)"/>
      </g>
     </g>
    </g>
    <g id="ytick_3">
     <g id="line2d_30">
      <defs>
       <path id="ma6982adc63" d="M 0 0 
L -2 0 
" style="stroke: #000000; stroke-width: 0.6"/>
      </defs>
      <g>
       <use xlink:href="#ma6982adc63" x="35.230312" y="129.085154" style="stroke: #000000; stroke-width: 0.6"/>
      </g>
     </g>
    </g>
    <g id="ytick_4">
     <g id="line2d_31">
      <g>
       <use xlink:href="#ma6982adc63" x="35.230312" y="124.26772" style="stroke: #000000; stroke-width: 0.6"/>
      </g>
     </g>
    </g>
    <g id="ytick_5">
     <g id="line2d_32">
      <g>
       <use xlink:href="#ma6982adc63" x="35.230312" y="120.33159" style="stroke: #000000; stroke-width: 0.6"/>
      </g>
     </g>
    </g>
    <g id="ytick_6">
     <g id="line2d_33">
      <g>
       <use xlink:href="#ma6982adc63" x="35.230312" y="117.00364" style="stroke: #000000; stroke-width: 0.6"/>
      </g>
     </g>
    </g>
    <g id="ytick_7">
     <g id="line2d_34">
      <g>
       <use xlink:href="#ma6982adc63" x="35.230312" y="114.120838" style="stroke: #000000; stroke-width: 0.6"/>
      </g>
     </g>
    </g>
    <g id="ytick_8">
     <g id="line2d_35">
      <g>
       <use xlink:href="#ma6982adc63" x="35.230312" y="111.578027" style="stroke: #000000; stroke-width: 0.6"/>
      </g>
     </g>
    </g>
    <g id="ytick_9">
     <g id="line2d_36">
      <g>
       <use xlink:href="#ma6982adc63" x="35.230312" y="94.339089" style="stroke: #000000; stroke-width: 0.6"/>
      </g>
     </g>
    </g>
    <g id="ytick_10">
     <g id="line2d_37">
      <g>
       <use xlink:href="#ma6982adc63" x="35.230312" y="85.585525" style="stroke: #000000; stroke-width: 0.6"/>
      </g>
     </g>
    </g>
    <g id="ytick_11">
     <g id="line2d_38">
      <g>
       <use xlink:href="#ma6982adc63" x="35.230312" y="79.374773" style="stroke: #000000; stroke-width: 0.6"/>
      </g>
     </g>
    </g>
    <g id="ytick_12">
     <g id="line2d_39">
      <g>
       <use xlink:href="#ma6982adc63" x="35.230312" y="74.55734" style="stroke: #000000; stroke-width: 0.6"/>
      </g>
     </g>
    </g>
    <g id="ytick_13">
     <g id="line2d_40">
      <g>
       <use xlink:href="#ma6982adc63" x="35.230312" y="70.62121" style="stroke: #000000; stroke-width: 0.6"/>
      </g>
     </g>
    </g>
    <g id="ytick_14">
     <g id="line2d_41">
      <g>
       <use xlink:href="#ma6982adc63" x="35.230312" y="67.293259" style="stroke: #000000; stroke-width: 0.6"/>
      </g>
     </g>
    </g>
    <g id="ytick_15">
     <g id="line2d_42">
      <g>
       <use xlink:href="#ma6982adc63" x="35.230312" y="64.410458" style="stroke: #000000; stroke-width: 0.6"/>
      </g>
     </g>
    </g>
    <g id="ytick_16">
     <g id="line2d_43">
      <g>
       <use xlink:href="#ma6982adc63" x="35.230312" y="61.867646" style="stroke: #000000; stroke-width: 0.6"/>
      </g>
     </g>
    </g>
    <g id="ytick_17">
     <g id="line2d_44">
      <g>
       <use xlink:href="#ma6982adc63" x="35.230312" y="44.628708" style="stroke: #000000; stroke-width: 0.6"/>
      </g>
     </g>
    </g>
    <g id="ytick_18">
     <g id="line2d_45">
      <g>
       <use xlink:href="#ma6982adc63" x="35.230312" y="35.875145" style="stroke: #000000; stroke-width: 0.6"/>
      </g>
     </g>
    </g>
    <g id="ytick_19">
     <g id="line2d_46">
      <g>
       <use xlink:href="#ma6982adc63" x="35.230312" y="29.664393" style="stroke: #000000; stroke-width: 0.6"/>
      </g>
     </g>
    </g>
    <g id="ytick_20">
     <g id="line2d_47">
      <g>
       <use xlink:href="#ma6982adc63" x="35.230312" y="24.846959" style="stroke: #000000; stroke-width: 0.6"/>
      </g>
     </g>
    </g>
    <g id="ytick_21">
     <g id="line2d_48">
      <g>
       <use xlink:href="#ma6982adc63" x="35.230312" y="20.910829" style="stroke: #000000; stroke-width: 0.6"/>
      </g>
     </g>
    </g>
    <g id="ytick_22">
     <g id="line2d_49">
      <g>
       <use xlink:href="#ma6982adc63" x="35.230312" y="17.582879" style="stroke: #000000; stroke-width: 0.6"/>
      </g>
     </g>
    </g>
    <g id="ytick_23">
     <g id="line2d_50">
      <g>
       <use xlink:href="#ma6982adc63" x="35.230312" y="14.700077" style="stroke: #000000; stroke-width: 0.6"/>
      </g>
     </g>
    </g>
    <g id="text_6">
     <!-- $\varepsilon_2$ -->
     <g transform="translate(8.278594 76.482615) rotate(-90) scale(0.09 -0.09)">
      <defs>
       <path id="DejaVuSans-32" d="M 1228 531 
L 3431 531 
L 3431 0 
L 469 0 
L 469 531 
Q 828 903 1448 1529 
Q 2069 2156 2228 2338 
Q 2531 2678 2651 2914 
Q 2772 3150 2772 3378 
Q 2772 3750 2511 3984 
Q 2250 4219 1831 4219 
Q 1534 4219 1204 4116 
Q 875 4013 500 3803 
L 500 4441 
Q 881 4594 1212 4672 
Q 1544 4750 1819 4750 
Q 2544 4750 2975 4387 
Q 3406 4025 3406 3419 
Q 3406 3131 3298 2873 
Q 3191 2616 2906 2266 
Q 2828 2175 2409 1742 
Q 1991 1309 1228 531 
z
" transform="scale(0.015625)"/>
      </defs>
      <use xlink:href="#DejaVuSans-Oblique-3b5" transform="translate(0 0.9375)"/>
      <use xlink:href="#DejaVuSans-32" transform="translate(54.052734 -15.46875) scale(0.7)"/>
     </g>
    </g>
   </g>
   <g id="line2d_51">
    <defs>
     <path id="m1135a42266" d="M -2.5 2.5 
L 2.5 2.5 
L 2.5 -2.5 
L -2.5 -2.5 
z
" style="stroke: #ffffff; stroke-width: 0.4; stroke-linejoin: miter"/>
    </defs>
    <g clip-path="url(#p96fee04d2c)">
     <use xlink:href="#m1135a42266" x="127.696542" y="114.29151" style="fill: #fdb576; stroke: #ffffff; stroke-width: 0.4; stroke-linejoin: miter"/>
    </g>
   </g>
   <g id="line2d_52">
    <g clip-path="url(#p96fee04d2c)">
     <use xlink:href="#m1135a42266" x="152.800496" y="99.327194" style="fill: #fdb576; stroke: #ffffff; stroke-width: 0.4; stroke-linejoin: miter"/>
    </g>
   </g>
   <g id="line2d_53">
    <g clip-path="url(#p96fee04d2c)">
     <use xlink:href="#m1135a42266" x="169.536465" y="89.350984" style="fill: #fdb576; stroke: #ffffff; stroke-width: 0.4; stroke-linejoin: miter"/>
    </g>
   </g>
   <g id="line2d_54">
    <g clip-path="url(#p96fee04d2c)">
     <use xlink:href="#m1135a42266" x="177.90445" y="84.362878" style="fill: #fdb576; stroke: #ffffff; stroke-width: 0.4; stroke-linejoin: miter"/>
    </g>
   </g>
   <g id="line2d_55">
    <g clip-path="url(#p96fee04d2c)">
     <use xlink:href="#m1135a42266" x="186.272434" y="79.374773" style="fill: #fdb576; stroke: #ffffff; stroke-width: 0.4; stroke-linejoin: miter"/>
    </g>
   </g>
   <g id="line2d_56">
    <g clip-path="url(#p96fee04d2c)">
     <use xlink:href="#m1135a42266" x="203.008404" y="74.386668" style="fill: #fdb576; stroke: #ffffff; stroke-width: 0.4; stroke-linejoin: miter"/>
    </g>
   </g>
   <g id="line2d_57">
    <g clip-path="url(#p96fee04d2c)">
     <use xlink:href="#m1135a42266" x="211.376388" y="69.398563" style="fill: #fdb576; stroke: #ffffff; stroke-width: 0.4; stroke-linejoin: miter"/>
    </g>
   </g>
   <g id="line2d_58">
    <g clip-path="url(#p96fee04d2c)">
     <use xlink:href="#m1135a42266" x="219.744373" y="64.410458" style="fill: #fdb576; stroke: #ffffff; stroke-width: 0.4; stroke-linejoin: miter"/>
    </g>
   </g>
   <g id="line2d_59">
    <defs>
     <path id="mbf3d726c4d" d="M -2.5 2.5 
L 2.5 2.5 
L 2.5 -2.5 
L -2.5 -2.5 
z
" style="stroke: #ffffff; stroke-width: 0.4; stroke-linejoin: miter"/>
    </defs>
    <g clip-path="url(#p96fee04d2c)">
     <use xlink:href="#mbf3d726c4d" x="127.696542" y="114.29151" style="fill: #fd8c3b; stroke: #ffffff; stroke-width: 0.4; stroke-linejoin: miter"/>
    </g>
   </g>
   <g id="line2d_60">
    <g clip-path="url(#p96fee04d2c)">
     <use xlink:href="#mbf3d726c4d" x="152.800496" y="99.327194" style="fill: #fd8c3b; stroke: #ffffff; stroke-width: 0.4; stroke-linejoin: miter"/>
    </g>
   </g>
   <g id="line2d_61">
    <g clip-path="url(#p96fee04d2c)">
     <use xlink:href="#mbf3d726c4d" x="169.536465" y="89.350984" style="fill: #fd8c3b; stroke: #ffffff; stroke-width: 0.4; stroke-linejoin: miter"/>
    </g>
   </g>
   <g id="line2d_62">
    <g clip-path="url(#p96fee04d2c)">
     <use xlink:href="#mbf3d726c4d" x="177.90445" y="84.362878" style="fill: #fd8c3b; stroke: #ffffff; stroke-width: 0.4; stroke-linejoin: miter"/>
    </g>
   </g>
   <g id="line2d_63">
    <g clip-path="url(#p96fee04d2c)">
     <use xlink:href="#mbf3d726c4d" x="186.272434" y="79.374773" style="fill: #fd8c3b; stroke: #ffffff; stroke-width: 0.4; stroke-linejoin: miter"/>
    </g>
   </g>
   <g id="line2d_64">
    <defs>
     <path id="md2bcee6be1" d="M -2.5 2.5 
L 2.5 2.5 
L 2.5 -2.5 
L -2.5 -2.5 
z
" style="stroke: #ffffff; stroke-width: 0.4; stroke-linejoin: miter"/>
    </defs>
    <g clip-path="url(#p96fee04d2c)">
     <use xlink:href="#md2bcee6be1" x="60.752666" y="74.386668" style="fill: #ec620f; stroke: #ffffff; stroke-width: 0.4; stroke-linejoin: miter"/>
    </g>
   </g>
   <g id="line2d_65">
    <g clip-path="url(#p96fee04d2c)">
     <use xlink:href="#md2bcee6be1" x="77.488635" y="69.398563" style="fill: #ec620f; stroke: #ffffff; stroke-width: 0.4; stroke-linejoin: miter"/>
    </g>
   </g>
   <g id="line2d_66">
    <g clip-path="url(#p96fee04d2c)">
     <use xlink:href="#md2bcee6be1" x="85.856619" y="64.410458" style="fill: #ec620f; stroke: #ffffff; stroke-width: 0.4; stroke-linejoin: miter"/>
    </g>
   </g>
   <g id="line2d_67">
    <g clip-path="url(#p96fee04d2c)">
     <use xlink:href="#md2bcee6be1" x="102.592589" y="84.362878" style="fill: #ec620f; stroke: #ffffff; stroke-width: 0.4; stroke-linejoin: miter"/>
    </g>
   </g>
   <g id="line2d_68">
    <g clip-path="url(#p96fee04d2c)">
     <use xlink:href="#md2bcee6be1" x="110.960573" y="89.350984" style="fill: #ec620f; stroke: #ffffff; stroke-width: 0.4; stroke-linejoin: miter"/>
    </g>
   </g>
   <g id="line2d_69">
    <g clip-path="url(#p96fee04d2c)">
     <use xlink:href="#md2bcee6be1" x="127.696542" y="114.29151" style="fill: #ec620f; stroke: #ffffff; stroke-width: 0.4; stroke-linejoin: miter"/>
    </g>
   </g>
   <g id="line2d_70">
    <g clip-path="url(#p96fee04d2c)">
     <use xlink:href="#md2bcee6be1" x="136.064527" y="104.315299" style="fill: #ec620f; stroke: #ffffff; stroke-width: 0.4; stroke-linejoin: miter"/>
    </g>
   </g>
   <g id="line2d_71">
    <g clip-path="url(#p96fee04d2c)">
     <use xlink:href="#md2bcee6be1" x="144.432511" y="99.327194" style="fill: #ec620f; stroke: #ffffff; stroke-width: 0.4; stroke-linejoin: miter"/>
    </g>
   </g>
   <g id="line2d_72">
    <defs>
     <path id="m0addca7583" d="M -2.5 2.5 
L 2.5 2.5 
L 2.5 -2.5 
L -2.5 -2.5 
z
" style="stroke: #ffffff; stroke-width: 0.4; stroke-linejoin: miter"/>
    </defs>
    <g clip-path="url(#p96fee04d2c)">
     <use xlink:href="#m0addca7583" x="52.384681" y="84.362878" style="fill: #c54102; stroke: #ffffff; stroke-width: 0.4; stroke-linejoin: miter"/>
    </g>
   </g>
   <g id="line2d_73">
    <g clip-path="url(#p96fee04d2c)">
     <use xlink:href="#m0addca7583" x="60.752666" y="74.386668" style="fill: #c54102; stroke: #ffffff; stroke-width: 0.4; stroke-linejoin: miter"/>
    </g>
   </g>
   <g id="line2d_74">
    <g clip-path="url(#p96fee04d2c)">
     <use xlink:href="#m0addca7583" x="77.488635" y="69.398563" style="fill: #c54102; stroke: #ffffff; stroke-width: 0.4; stroke-linejoin: miter"/>
    </g>
   </g>
   <g id="line2d_75">
    <g clip-path="url(#p96fee04d2c)">
     <use xlink:href="#m0addca7583" x="85.856619" y="64.410458" style="fill: #c54102; stroke: #ffffff; stroke-width: 0.4; stroke-linejoin: miter"/>
    </g>
   </g>
   <g id="line2d_76">
    <defs>
     <path id="m34c039ed38" d="M -2.5 2.5 
L 2.5 2.5 
L 2.5 -2.5 
L -2.5 -2.5 
z
" style="stroke: #ffffff; stroke-width: 0.4; stroke-linejoin: miter"/>
    </defs>
    <g clip-path="url(#p96fee04d2c)">
     <use xlink:href="#m34c039ed38" x="52.384681" y="84.362878" style="fill: #8e2d04; stroke: #ffffff; stroke-width: 0.4; stroke-linejoin: miter"/>
    </g>
   </g>
   <g id="line2d_77">
    <g clip-path="url(#p96fee04d2c)">
     <use xlink:href="#m34c039ed38" x="60.752666" y="74.386668" style="fill: #8e2d04; stroke: #ffffff; stroke-width: 0.4; stroke-linejoin: miter"/>
    </g>
   </g>
   <g id="line2d_78">
    <g clip-path="url(#p96fee04d2c)">
     <use xlink:href="#m34c039ed38" x="77.488635" y="69.398563" style="fill: #8e2d04; stroke: #ffffff; stroke-width: 0.4; stroke-linejoin: miter"/>
    </g>
   </g>
   <g id="line2d_79">
    <g clip-path="url(#p96fee04d2c)">
     <use xlink:href="#m34c039ed38" x="85.856619" y="64.410458" style="fill: #8e2d04; stroke: #ffffff; stroke-width: 0.4; stroke-linejoin: miter"/>
    </g>
   </g>
   <g id="line2d_80">
    <path d="M 44.016696 124.26772 
L 219.744373 19.51751 
" clip-path="url(#p96fee04d2c)" style="fill: none; stroke-dasharray: 1.85,0.8; stroke-dashoffset: 0; stroke: #4d4d4d; stroke-opacity: 0.6; stroke-width: 0.5"/>
   </g>
   <g id="patch_3">
    <path d="M 35.230312 129.505231 
L 35.230312 14.28 
" style="fill: none; stroke: #000000; stroke-width: 0.8; stroke-linejoin: miter; stroke-linecap: square"/>
   </g>
   <g id="patch_4">
    <path d="M 35.230313 129.505231 
L 228.530757 129.505231 
" style="fill: none; stroke: #000000; stroke-width: 0.8; stroke-linejoin: miter; stroke-linecap: square"/>
   </g>
   <g id="text_7">
    <!-- NE shift under asymmetric privacy weights $C_1 \neq C_2$ -->
    <g transform="translate(17.355535 8.28) scale(0.09 -0.09)">
     <defs>
      <path id="DejaVuSans-4e" d="M 628 4666 
L 1478 4666 
L 3547 763 
L 3547 4666 
L 4159 4666 
L 4159 0 
L 3309 0 
L 1241 3903 
L 1241 0 
L 628 0 
L 628 4666 
z
" transform="scale(0.015625)"/>
      <path id="DejaVuSans-45" d="M 628 4666 
L 3578 4666 
L 3578 4134 
L 1259 4134 
L 1259 2753 
L 3481 2753 
L 3481 2222 
L 1259 2222 
L 1259 531 
L 3634 531 
L 3634 0 
L 628 0 
L 628 4666 
z
" transform="scale(0.015625)"/>
      <path id="DejaVuSans-20" transform="scale(0.015625)"/>
      <path id="DejaVuSans-73" d="M 2834 3397 
L 2834 2853 
Q 2591 2978 2328 3040 
Q 2066 3103 1784 3103 
Q 1356 3103 1142 2972 
Q 928 2841 928 2578 
Q 928 2378 1081 2264 
Q 1234 2150 1697 2047 
L 1894 2003 
Q 2506 1872 2764 1633 
Q 3022 1394 3022 966 
Q 3022 478 2636 193 
Q 2250 -91 1575 -91 
Q 1294 -91 989 -36 
Q 684 19 347 128 
L 347 722 
Q 666 556 975 473 
Q 1284 391 1588 391 
Q 1994 391 2212 530 
Q 2431 669 2431 922 
Q 2431 1156 2273 1281 
Q 2116 1406 1581 1522 
L 1381 1569 
Q 847 1681 609 1914 
Q 372 2147 372 2553 
Q 372 3047 722 3315 
Q 1072 3584 1716 3584 
Q 2034 3584 2315 3537 
Q 2597 3491 2834 3397 
z
" transform="scale(0.015625)"/>
      <path id="DejaVuSans-68" d="M 3513 2113 
L 3513 0 
L 2938 0 
L 2938 2094 
Q 2938 2591 2744 2837 
Q 2550 3084 2163 3084 
Q 1697 3084 1428 2787 
Q 1159 2491 1159 1978 
L 1159 0 
L 581 0 
L 581 4863 
L 1159 4863 
L 1159 2956 
Q 1366 3272 1645 3428 
Q 1925 3584 2291 3584 
Q 2894 3584 3203 3211 
Q 3513 2838 3513 2113 
z
" transform="scale(0.015625)"/>
      <path id="DejaVuSans-69" d="M 603 3500 
L 1178 3500 
L 1178 0 
L 603 0 
L 603 3500 
z
M 603 4863 
L 1178 4863 
L 1178 4134 
L 603 4134 
L 603 4863 
z
" transform="scale(0.015625)"/>
      <path id="DejaVuSans-66" d="M 2375 4863 
L 2375 4384 
L 1825 4384 
Q 1516 4384 1395 4259 
Q 1275 4134 1275 3809 
L 1275 3500 
L 2222 3500 
L 2222 3053 
L 1275 3053 
L 1275 0 
L 697 0 
L 697 3053 
L 147 3053 
L 147 3500 
L 697 3500 
L 697 3744 
Q 697 4328 969 4595 
Q 1241 4863 1831 4863 
L 2375 4863 
z
" transform="scale(0.015625)"/>
      <path id="DejaVuSans-74" d="M 1172 4494 
L 1172 3500 
L 2356 3500 
L 2356 3053 
L 1172 3053 
L 1172 1153 
Q 1172 725 1289 603 
Q 1406 481 1766 481 
L 2356 481 
L 2356 0 
L 1766 0 
Q 1100 0 847 248 
Q 594 497 594 1153 
L 594 3053 
L 172 3053 
L 172 3500 
L 594 3500 
L 594 4494 
L 1172 4494 
z
" transform="scale(0.015625)"/>
      <path id="DejaVuSans-75" d="M 544 1381 
L 544 3500 
L 1119 3500 
L 1119 1403 
Q 1119 906 1312 657 
Q 1506 409 1894 409 
Q 2359 409 2629 706 
Q 2900 1003 2900 1516 
L 2900 3500 
L 3475 3500 
L 3475 0 
L 2900 0 
L 2900 538 
Q 2691 219 2414 64 
Q 2138 -91 1772 -91 
Q 1169 -91 856 284 
Q 544 659 544 1381 
z
M 1991 3584 
L 1991 3584 
z
" transform="scale(0.015625)"/>
      <path id="DejaVuSans-6e" d="M 3513 2113 
L 3513 0 
L 2938 0 
L 2938 2094 
Q 2938 2591 2744 2837 
Q 2550 3084 2163 3084 
Q 1697 3084 1428 2787 
Q 1159 2491 1159 1978 
L 1159 0 
L 581 0 
L 581 3500 
L 1159 3500 
L 1159 2956 
Q 1366 3272 1645 3428 
Q 1925 3584 2291 3584 
Q 2894 3584 3203 3211 
Q 3513 2838 3513 2113 
z
" transform="scale(0.015625)"/>
      <path id="DejaVuSans-64" d="M 2906 2969 
L 2906 4863 
L 3481 4863 
L 3481 0 
L 2906 0 
L 2906 525 
Q 2725 213 2448 61 
Q 2172 -91 1784 -91 
Q 1150 -91 751 415 
Q 353 922 353 1747 
Q 353 2572 751 3078 
Q 1150 3584 1784 3584 
Q 2172 3584 2448 3432 
Q 2725 3281 2906 2969 
z
M 947 1747 
Q 947 1113 1208 752 
Q 1469 391 1925 391 
Q 2381 391 2643 752 
Q 2906 1113 2906 1747 
Q 2906 2381 2643 2742 
Q 2381 3103 1925 3103 
Q 1469 3103 1208 2742 
Q 947 2381 947 1747 
z
" transform="scale(0.015625)"/>
      <path id="DejaVuSans-65" d="M 3597 1894 
L 3597 1613 
L 953 1613 
Q 991 1019 1311 708 
Q 1631 397 2203 397 
Q 2534 397 2845 478 
Q 3156 559 3463 722 
L 3463 178 
Q 3153 47 2828 -22 
Q 2503 -91 2169 -91 
Q 1331 -91 842 396 
Q 353 884 353 1716 
Q 353 2575 817 3079 
Q 1281 3584 2069 3584 
Q 2775 3584 3186 3129 
Q 3597 2675 3597 1894 
z
M 3022 2063 
Q 3016 2534 2758 2815 
Q 2500 3097 2075 3097 
Q 1594 3097 1305 2825 
Q 1016 2553 972 2059 
L 3022 2063 
z
" transform="scale(0.015625)"/>
      <path id="DejaVuSans-72" d="M 2631 2963 
Q 2534 3019 2420 3045 
Q 2306 3072 2169 3072 
Q 1681 3072 1420 2755 
Q 1159 2438 1159 1844 
L 1159 0 
L 581 0 
L 581 3500 
L 1159 3500 
L 1159 2956 
Q 1341 3275 1631 3429 
Q 1922 3584 2338 3584 
Q 2397 3584 2469 3576 
Q 2541 3569 2628 3553 
L 2631 2963 
z
" transform="scale(0.015625)"/>
      <path id="DejaVuSans-61" d="M 2194 1759 
Q 1497 1759 1228 1600 
Q 959 1441 959 1056 
Q 959 750 1161 570 
Q 1363 391 1709 391 
Q 2188 391 2477 730 
Q 2766 1069 2766 1631 
L 2766 1759 
L 2194 1759 
z
M 3341 1997 
L 3341 0 
L 2766 0 
L 2766 531 
Q 2569 213 2275 61 
Q 1981 -91 1556 -91 
Q 1019 -91 701 211 
Q 384 513 384 1019 
Q 384 1609 779 1909 
Q 1175 2209 1959 2209 
L 2766 2209 
L 2766 2266 
Q 2766 2663 2505 2880 
Q 2244 3097 1772 3097 
Q 1472 3097 1187 3025 
Q 903 2953 641 2809 
L 641 3341 
Q 956 3463 1253 3523 
Q 1550 3584 1831 3584 
Q 2591 3584 2966 3190 
Q 3341 2797 3341 1997 
z
" transform="scale(0.015625)"/>
      <path id="DejaVuSans-79" d="M 2059 -325 
Q 1816 -950 1584 -1140 
Q 1353 -1331 966 -1331 
L 506 -1331 
L 506 -850 
L 844 -850 
Q 1081 -850 1212 -737 
Q 1344 -625 1503 -206 
L 1606 56 
L 191 3500 
L 800 3500 
L 1894 763 
L 2988 3500 
L 3597 3500 
L 2059 -325 
z
" transform="scale(0.015625)"/>
      <path id="DejaVuSans-6d" d="M 3328 2828 
Q 3544 3216 3844 3400 
Q 4144 3584 4550 3584 
Q 5097 3584 5394 3201 
Q 5691 2819 5691 2113 
L 5691 0 
L 5113 0 
L 5113 2094 
Q 5113 2597 4934 2840 
Q 4756 3084 4391 3084 
Q 3944 3084 3684 2787 
Q 3425 2491 3425 1978 
L 3425 0 
L 2847 0 
L 2847 2094 
Q 2847 2600 2669 2842 
Q 2491 3084 2119 3084 
Q 1678 3084 1418 2786 
Q 1159 2488 1159 1978 
L 1159 0 
L 581 0 
L 581 3500 
L 1159 3500 
L 1159 2956 
Q 1356 3278 1631 3431 
Q 1906 3584 2284 3584 
Q 2666 3584 2933 3390 
Q 3200 3197 3328 2828 
z
" transform="scale(0.015625)"/>
      <path id="DejaVuSans-63" d="M 3122 3366 
L 3122 2828 
Q 2878 2963 2633 3030 
Q 2388 3097 2138 3097 
Q 1578 3097 1268 2742 
Q 959 2388 959 1747 
Q 959 1106 1268 751 
Q 1578 397 2138 397 
Q 2388 397 2633 464 
Q 2878 531 3122 666 
L 3122 134 
Q 2881 22 2623 -34 
Q 2366 -91 2075 -91 
Q 1284 -91 818 406 
Q 353 903 353 1747 
Q 353 2603 823 3093 
Q 1294 3584 2113 3584 
Q 2378 3584 2631 3529 
Q 2884 3475 3122 3366 
z
" transform="scale(0.015625)"/>
      <path id="DejaVuSans-70" d="M 1159 525 
L 1159 -1331 
L 581 -1331 
L 581 3500 
L 1159 3500 
L 1159 2969 
Q 1341 3281 1617 3432 
Q 1894 3584 2278 3584 
Q 2916 3584 3314 3078 
Q 3713 2572 3713 1747 
Q 3713 922 3314 415 
Q 2916 -91 2278 -91 
Q 1894 -91 1617 61 
Q 1341 213 1159 525 
z
M 3116 1747 
Q 3116 2381 2855 2742 
Q 2594 3103 2138 3103 
Q 1681 3103 1420 2742 
Q 1159 2381 1159 1747 
Q 1159 1113 1420 752 
Q 1681 391 2138 391 
Q 2594 391 2855 752 
Q 3116 1113 3116 1747 
z
" transform="scale(0.015625)"/>
      <path id="DejaVuSans-76" d="M 191 3500 
L 800 3500 
L 1894 563 
L 2988 3500 
L 3597 3500 
L 2284 0 
L 1503 0 
L 191 3500 
z
" transform="scale(0.015625)"/>
      <path id="DejaVuSans-77" d="M 269 3500 
L 844 3500 
L 1563 769 
L 2278 3500 
L 2956 3500 
L 3675 769 
L 4391 3500 
L 4966 3500 
L 4050 0 
L 3372 0 
L 2619 2869 
L 1863 0 
L 1184 0 
L 269 3500 
z
" transform="scale(0.015625)"/>
      <path id="DejaVuSans-67" d="M 2906 1791 
Q 2906 2416 2648 2759 
Q 2391 3103 1925 3103 
Q 1463 3103 1205 2759 
Q 947 2416 947 1791 
Q 947 1169 1205 825 
Q 1463 481 1925 481 
Q 2391 481 2648 825 
Q 2906 1169 2906 1791 
z
M 3481 434 
Q 3481 -459 3084 -895 
Q 2688 -1331 1869 -1331 
Q 1566 -1331 1297 -1286 
Q 1028 -1241 775 -1147 
L 775 -588 
Q 1028 -725 1275 -790 
Q 1522 -856 1778 -856 
Q 2344 -856 2625 -561 
Q 2906 -266 2906 331 
L 2906 616 
Q 2728 306 2450 153 
Q 2172 0 1784 0 
Q 1141 0 747 490 
Q 353 981 353 1791 
Q 353 2603 747 3093 
Q 1141 3584 1784 3584 
Q 2172 3584 2450 3431 
Q 2728 3278 2906 2969 
L 2906 3500 
L 3481 3500 
L 3481 434 
z
" transform="scale(0.015625)"/>
      <path id="DejaVuSans-Oblique-43" d="M 4447 4306 
L 4319 3641 
Q 4019 3944 3683 4091 
Q 3347 4238 2956 4238 
Q 2422 4238 2017 3981 
Q 1613 3725 1319 3200 
Q 1131 2863 1032 2486 
Q 934 2109 934 1728 
Q 934 1091 1264 756 
Q 1594 422 2222 422 
Q 2656 422 3056 561 
Q 3456 700 3834 978 
L 3688 231 
Q 3316 72 2936 -9 
Q 2556 -91 2175 -91 
Q 1278 -91 773 396 
Q 269 884 269 1753 
Q 269 2309 461 2846 
Q 653 3384 1013 3828 
Q 1394 4300 1883 4525 
Q 2372 4750 3022 4750 
Q 3422 4750 3780 4639 
Q 4138 4528 4447 4306 
z
" transform="scale(0.015625)"/>
      <path id="DejaVuSans-2260" d="M 678 2906 
L 3091 2906 
L 3891 3891 
L 4281 3572 
L 3738 2906 
L 4684 2906 
L 4684 2381 
L 3309 2381 
L 2700 1631 
L 4684 1631 
L 4684 1100 
L 2266 1100 
L 1459 122 
L 1069 441 
L 1613 1100 
L 678 1100 
L 678 1631 
L 2047 1631 
L 2656 2381 
L 678 2381 
L 678 2906 
z
" transform="scale(0.015625)"/>
     </defs>
     <use xlink:href="#DejaVuSans-4e" transform="translate(0 0.015625)"/>
     <use xlink:href="#DejaVuSans-45" transform="translate(74.804688 0.015625)"/>
     <use xlink:href="#DejaVuSans-20" transform="translate(137.988281 0.015625)"/>
     <use xlink:href="#DejaVuSans-73" transform="translate(169.775391 0.015625)"/>
     <use xlink:href="#DejaVuSans-68" transform="translate(221.875 0.015625)"/>
     <use xlink:href="#DejaVuSans-69" transform="translate(285.253906 0.015625)"/>
     <use xlink:href="#DejaVuSans-66" transform="translate(313.037109 0.015625)"/>
     <use xlink:href="#DejaVuSans-74" transform="translate(348.242188 0.015625)"/>
     <use xlink:href="#DejaVuSans-20" transform="translate(387.451172 0.015625)"/>
     <use xlink:href="#DejaVuSans-75" transform="translate(419.238281 0.015625)"/>
     <use xlink:href="#DejaVuSans-6e" transform="translate(482.617188 0.015625)"/>
     <use xlink:href="#DejaVuSans-64" transform="translate(545.996094 0.015625)"/>
     <use xlink:href="#DejaVuSans-65" transform="translate(609.472656 0.015625)"/>
     <use xlink:href="#DejaVuSans-72" transform="translate(670.996094 0.015625)"/>
     <use xlink:href="#DejaVuSans-20" transform="translate(712.109375 0.015625)"/>
     <use xlink:href="#DejaVuSans-61" transform="translate(743.896484 0.015625)"/>
     <use xlink:href="#DejaVuSans-73" transform="translate(805.175781 0.015625)"/>
     <use xlink:href="#DejaVuSans-79" transform="translate(857.275391 0.015625)"/>
     <use xlink:href="#DejaVuSans-6d" transform="translate(916.455078 0.015625)"/>
     <use xlink:href="#DejaVuSans-6d" transform="translate(1013.867188 0.015625)"/>
     <use xlink:href="#DejaVuSans-65" transform="translate(1111.279297 0.015625)"/>
     <use xlink:href="#DejaVuSans-74" transform="translate(1172.802734 0.015625)"/>
     <use xlink:href="#DejaVuSans-72" transform="translate(1212.011719 0.015625)"/>
     <use xlink:href="#DejaVuSans-69" transform="translate(1253.125 0.015625)"/>
     <use xlink:href="#DejaVuSans-63" transform="translate(1280.908203 0.015625)"/>
     <use xlink:href="#DejaVuSans-20" transform="translate(1335.888672 0.015625)"/>
     <use xlink:href="#DejaVuSans-70" transform="translate(1367.675781 0.015625)"/>
     <use xlink:href="#DejaVuSans-72" transform="translate(1431.152344 0.015625)"/>
     <use xlink:href="#DejaVuSans-69" transform="translate(1472.265625 0.015625)"/>
     <use xlink:href="#DejaVuSans-76" transform="translate(1500.048828 0.015625)"/>
     <use xlink:href="#DejaVuSans-61" transform="translate(1559.228516 0.015625)"/>
     <use xlink:href="#DejaVuSans-63" transform="translate(1620.507812 0.015625)"/>
     <use xlink:href="#DejaVuSans-79" transform="translate(1675.488281 0.015625)"/>
     <use xlink:href="#DejaVuSans-20" transform="translate(1734.667969 0.015625)"/>
     <use xlink:href="#DejaVuSans-77" transform="translate(1766.455078 0.015625)"/>
     <use xlink:href="#DejaVuSans-65" transform="translate(1848.242188 0.015625)"/>
     <use xlink:href="#DejaVuSans-69" transform="translate(1909.765625 0.015625)"/>
     <use xlink:href="#DejaVuSans-67" transform="translate(1937.548828 0.015625)"/>
     <use xlink:href="#DejaVuSans-68" transform="translate(2001.025391 0.015625)"/>
     <use xlink:href="#DejaVuSans-74" transform="translate(2064.404297 0.015625)"/>
     <use xlink:href="#DejaVuSans-73" transform="translate(2103.613281 0.015625)"/>
     <use xlink:href="#DejaVuSans-20" transform="translate(2155.712891 0.015625)"/>
     <use xlink:href="#DejaVuSans-Oblique-43" transform="translate(2187.5 0.015625)"/>
     <use xlink:href="#DejaVuSans-31" transform="translate(2257.324219 -16.390625) scale(0.7)"/>
     <use xlink:href="#DejaVuSans-2260" transform="translate(2324.077148 0.015625)"/>
     <use xlink:href="#DejaVuSans-Oblique-43" transform="translate(2427.348633 0.015625)"/>
     <use xlink:href="#DejaVuSans-32" transform="translate(2497.172852 -16.390625) scale(0.7)"/>
    </g>
   </g>
   <g id="legend_1">
    <g id="line2d_81">
     <path d="M 40.630312 22.139062 
L 46.630312 22.139062 
L 52.630312 22.139062 
" style="fill: none"/>
     <defs>
      <path id="m9a2c2f86c3" d="M -2.5 2.5 
L 2.5 2.5 
L 2.5 -2.5 
L -2.5 -2.5 
z
" style="stroke: #fdb576; stroke-linejoin: miter"/>
     </defs>
     <g>
      <use xlink:href="#m9a2c2f86c3" x="46.630312" y="22.139062" style="fill: #fdb576; stroke: #fdb576; stroke-linejoin: miter"/>
     </g>
    </g>
    <g id="text_8">
     <!-- $C_1/C_2 = 0.25$ -->
     <g transform="translate(57.430312 24.239062) scale(0.06 -0.06)">
      <defs>
       <path id="DejaVuSans-2f" d="M 1625 4666 
L 2156 4666 
L 531 -594 
L 0 -594 
L 1625 4666 
z
" transform="scale(0.015625)"/>
       <path id="DejaVuSans-3d" d="M 678 2906 
L 4684 2906 
L 4684 2381 
L 678 2381 
L 678 2906 
z
M 678 1631 
L 4684 1631 
L 4684 1100 
L 678 1100 
L 678 1631 
z
" transform="scale(0.015625)"/>
       <path id="DejaVuSans-2e" d="M 684 794 
L 1344 794 
L 1344 0 
L 684 0 
L 684 794 
z
" transform="scale(0.015625)"/>
       <path id="DejaVuSans-35" d="M 691 4666 
L 3169 4666 
L 3169 4134 
L 1269 4134 
L 1269 2991 
Q 1406 3038 1543 3061 
Q 1681 3084 1819 3084 
Q 2600 3084 3056 2656 
Q 3513 2228 3513 1497 
Q 3513 744 3044 326 
Q 2575 -91 1722 -91 
Q 1428 -91 1123 -41 
Q 819 9 494 109 
L 494 744 
Q 775 591 1075 516 
Q 1375 441 1709 441 
Q 2250 441 2565 725 
Q 2881 1009 2881 1497 
Q 2881 1984 2565 2268 
Q 2250 2553 1709 2553 
Q 1456 2553 1204 2497 
Q 953 2441 691 2322 
L 691 4666 
z
" transform="scale(0.015625)"/>
      </defs>
      <use xlink:href="#DejaVuSans-Oblique-43" transform="translate(0 0.78125)"/>
      <use xlink:href="#DejaVuSans-31" transform="translate(69.824219 -15.625) scale(0.7)"/>
      <use xlink:href="#DejaVuSans-2f" transform="translate(117.094727 0.78125)"/>
      <use xlink:href="#DejaVuSans-Oblique-43" transform="translate(150.786133 0.78125)"/>
      <use xlink:href="#DejaVuSans-32" transform="translate(220.610352 -15.625) scale(0.7)"/>
      <use xlink:href="#DejaVuSans-3d" transform="translate(287.363281 0.78125)"/>
      <use xlink:href="#DejaVuSans-30" transform="translate(390.634766 0.78125)"/>
      <use xlink:href="#DejaVuSans-2e" transform="translate(454.257812 0.78125)"/>
      <use xlink:href="#DejaVuSans-32" transform="translate(480.544922 0.78125)"/>
      <use xlink:href="#DejaVuSans-35" transform="translate(544.167969 0.78125)"/>
     </g>
    </g>
    <g id="line2d_82">
     <path d="M 40.630312 30.945937 
L 46.630312 30.945937 
L 52.630312 30.945937 
" style="fill: none"/>
     <defs>
      <path id="mbad7f679bc" d="M -2.5 2.5 
L 2.5 2.5 
L 2.5 -2.5 
L -2.5 -2.5 
z
" style="stroke: #fd8c3b; stroke-linejoin: miter"/>
     </defs>
     <g>
      <use xlink:href="#mbad7f679bc" x="46.630312" y="30.945937" style="fill: #fd8c3b; stroke: #fd8c3b; stroke-linejoin: miter"/>
     </g>
    </g>
    <g id="text_9">
     <!-- $C_1/C_2 = 0.5$ -->
     <g transform="translate(57.430312 33.045937) scale(0.06 -0.06)">
      <use xlink:href="#DejaVuSans-Oblique-43" transform="translate(0 0.78125)"/>
      <use xlink:href="#DejaVuSans-31" transform="translate(69.824219 -15.625) scale(0.7)"/>
      <use xlink:href="#DejaVuSans-2f" transform="translate(117.094727 0.78125)"/>
      <use xlink:href="#DejaVuSans-Oblique-43" transform="translate(150.786133 0.78125)"/>
      <use xlink:href="#DejaVuSans-32" transform="translate(220.610352 -15.625) scale(0.7)"/>
      <use xlink:href="#DejaVuSans-3d" transform="translate(287.363281 0.78125)"/>
      <use xlink:href="#DejaVuSans-30" transform="translate(390.634766 0.78125)"/>
      <use xlink:href="#DejaVuSans-2e" transform="translate(454.257812 0.78125)"/>
      <use xlink:href="#DejaVuSans-35" transform="translate(486.044922 0.78125)"/>
     </g>
    </g>
    <g id="line2d_83">
     <path d="M 40.630312 39.752812 
L 46.630312 39.752812 
L 52.630312 39.752812 
" style="fill: none"/>
     <defs>
      <path id="m76743ae9b0" d="M -2.5 2.5 
L 2.5 2.5 
L 2.5 -2.5 
L -2.5 -2.5 
z
" style="stroke: #ec620f; stroke-linejoin: miter"/>
     </defs>
     <g>
      <use xlink:href="#m76743ae9b0" x="46.630312" y="39.752812" style="fill: #ec620f; stroke: #ec620f; stroke-linejoin: miter"/>
     </g>
    </g>
    <g id="text_10">
     <!-- $C_1/C_2 = 1$ -->
     <g transform="translate(57.430312 41.852812) scale(0.06 -0.06)">
      <use xlink:href="#DejaVuSans-Oblique-43" transform="translate(0 0.78125)"/>
      <use xlink:href="#DejaVuSans-31" transform="translate(69.824219 -15.625) scale(0.7)"/>
      <use xlink:href="#DejaVuSans-2f" transform="translate(117.094727 0.78125)"/>
      <use xlink:href="#DejaVuSans-Oblique-43" transform="translate(150.786133 0.78125)"/>
      <use xlink:href="#DejaVuSans-32" transform="translate(220.610352 -15.625) scale(0.7)"/>
      <use xlink:href="#DejaVuSans-3d" transform="translate(287.363281 0.78125)"/>
      <use xlink:href="#DejaVuSans-31" transform="translate(390.634766 0.78125)"/>
     </g>
    </g>
    <g id="line2d_84">
     <path d="M 40.630312 48.559687 
L 46.630312 48.559687 
L 52.630312 48.559687 
" style="fill: none"/>
     <defs>
      <path id="m0a82763f72" d="M -2.5 2.5 
L 2.5 2.5 
L 2.5 -2.5 
L -2.5 -2.5 
z
" style="stroke: #c54102; stroke-linejoin: miter"/>
     </defs>
     <g>
      <use xlink:href="#m0a82763f72" x="46.630312" y="48.559687" style="fill: #c54102; stroke: #c54102; stroke-linejoin: miter"/>
     </g>
    </g>
    <g id="text_11">
     <!-- $C_1/C_2 = 2$ -->
     <g transform="translate(57.430312 50.659687) scale(0.06 -0.06)">
      <use xlink:href="#DejaVuSans-Oblique-43" transform="translate(0 0.78125)"/>
      <use xlink:href="#DejaVuSans-31" transform="translate(69.824219 -15.625) scale(0.7)"/>
      <use xlink:href="#DejaVuSans-2f" transform="translate(117.094727 0.78125)"/>
      <use xlink:href="#DejaVuSans-Oblique-43" transform="translate(150.786133 0.78125)"/>
      <use xlink:href="#DejaVuSans-32" transform="translate(220.610352 -15.625) scale(0.7)"/>
      <use xlink:href="#DejaVuSans-3d" transform="translate(287.363281 0.78125)"/>
      <use xlink:href="#DejaVuSans-32" transform="translate(390.634766 0.78125)"/>
     </g>
    </g>
    <g id="line2d_85">
     <path d="M 40.630312 57.366562 
L 46.630312 57.366562 
L 52.630312 57.366562 
" style="fill: none"/>
     <defs>
      <path id="m9b47d21f23" d="M -2.5 2.5 
L 2.5 2.5 
L 2.5 -2.5 
L -2.5 -2.5 
z
" style="stroke: #8e2d04; stroke-linejoin: miter"/>
     </defs>
     <g>
      <use xlink:href="#m9b47d21f23" x="46.630312" y="57.366562" style="fill: #8e2d04; stroke: #8e2d04; stroke-linejoin: miter"/>
     </g>
    </g>
    <g id="text_12">
     <!-- $C_1/C_2 = 4$ -->
     <g transform="translate(57.430312 59.466562) scale(0.06 -0.06)">
      <defs>
       <path id="DejaVuSans-34" d="M 2419 4116 
L 825 1625 
L 2419 1625 
L 2419 4116 
z
M 2253 4666 
L 3047 4666 
L 3047 1625 
L 3713 1625 
L 3713 1100 
L 3047 1100 
L 3047 0 
L 2419 0 
L 2419 1100 
L 313 1100 
L 313 1709 
L 2253 4666 
z
" transform="scale(0.015625)"/>
      </defs>
      <use xlink:href="#DejaVuSans-Oblique-43" transform="translate(0 0.78125)"/>
      <use xlink:href="#DejaVuSans-31" transform="translate(69.824219 -15.625) scale(0.7)"/>
      <use xlink:href="#DejaVuSans-2f" transform="translate(117.094727 0.78125)"/>
      <use xlink:href="#DejaVuSans-Oblique-43" transform="translate(150.786133 0.78125)"/>
      <use xlink:href="#DejaVuSans-32" transform="translate(220.610352 -15.625) scale(0.7)"/>
      <use xlink:href="#DejaVuSans-3d" transform="translate(287.363281 0.78125)"/>
      <use xlink:href="#DejaVuSans-34" transform="translate(390.634766 0.78125)"/>
     </g>
    </g>
   </g>
  </g>
 </g>
 <defs>
  <clipPath id="p96fee04d2c">
   <rect x="35.230312" y="14.28" width="193.300444" height="115.225231"/>
  </clipPath>
 </defs>
</svg>
